<?xml version="1.0" encoding="utf-8"?>
<!-- Generator: Adobe Illustrator 27.5.0, SVG Export Plug-In . SVG Version: 6.00 Build 0)  -->
<svg version="1.1" xmlns="http://www.w3.org/2000/svg" xmlns:xlink="http://www.w3.org/1999/xlink" x="0px" y="0px"
	 viewBox="0 0 500 500" style="enable-background:new 0 0 500 500;" xml:space="preserve">
<g id="Background_Simple_1_">
	<g id="Background_Simple">
		<g>
			<path style="fill:#11998E;" d="M26.281,343.236c0.071-0.172,444.943-3.473,444.679,0c-0.216,2.824,30.212-113.294-67.032-107.629
				c0,0,21.76-46.585-10.434-74.308c-33.988-29.267-77.369-4.054-77.369-4.054S277.32,61.051,189.517,90.319
				c-100.323,33.441-73.233,148.187-73.233,148.187S24.861,230.927,26.281,343.236z"/>
			<path style="opacity:0.6;fill:#FFFFFF;" d="M26.281,343.236c0.071-0.172,444.943-3.473,444.679,0
				c-0.216,2.824,30.212-113.294-67.032-107.629c0,0,21.76-46.585-10.434-74.308c-33.988-29.267-77.369-4.054-77.369-4.054
				S277.32,61.051,189.517,90.319c-100.323,33.441-73.233,148.187-73.233,148.187S24.861,230.927,26.281,343.236z"/>
		</g>
	</g>
</g>
<g id="Graphics">
	<g id="Background_details">
		<g>
			<path style="fill:#11998E;" d="M149.177,111.368l-37.019-5.149l-3.399,24.152l36.569,6.102L149.177,111.368z M146.973,112.038
				l-18.143,8.727l-14.765-13.303L146.973,112.038z M109.848,129.573l3.073-21.84l15.743,14.184l19.344-9.304l-3.487,22.746
				L109.848,129.573z"/>
			<path style="opacity:0.6;fill:#FFFFFF;" d="M149.177,111.368l-37.019-5.149l-3.399,24.152l36.569,6.102L149.177,111.368z
				 M146.973,112.038l-18.143,8.727l-14.765-13.303L146.973,112.038z M109.848,129.573l3.073-21.84l15.743,14.184l19.344-9.304
				l-3.487,22.746L109.848,129.573z"/>
		</g>
		<g>
			<path style="fill:#11998E;" d="M330.94,88.465l-30.442,26.626l39.179,47.176l0.313,0.377l32.049-27.34L330.94,88.465z
				 M369.933,134.368l-34.022-9.198l-4.34-34.519L369.933,134.368z M301.844,115.198l28.684-25.089l4.504,35.825l35.308,9.547
				l-30.233,25.791L301.844,115.198z"/>
			<path style="opacity:0.6;fill:#FFFFFF;" d="M330.94,88.465l-30.442,26.626l39.179,47.176l0.313,0.377l32.049-27.34L330.94,88.465
				z M369.933,134.368l-34.022-9.198l-4.34-34.519L369.933,134.368z M301.844,115.198l28.684-25.089l4.504,35.825l35.308,9.547
				l-30.233,25.791L301.844,115.198z"/>
		</g>
		<g>
			<g>
				<path style="fill:#11998E;" d="M60.546,226.129c-0.003,0-0.006,0-0.009,0c-0.267-0.005-0.479-0.225-0.475-0.493
					c0.012-0.645,0.025-1.291,0.042-1.937c0.007-0.266,0.207-0.47,0.496-0.471c0.267,0.007,0.478,0.229,0.471,0.495
					c-0.016,0.643-0.03,1.287-0.042,1.931C61.025,225.918,60.809,226.129,60.546,226.129z M60.754,219.363
					c-0.007,0-0.015,0-0.022-0.001c-0.267-0.012-0.473-0.238-0.462-0.504c0.028-0.645,0.059-1.29,0.092-1.935
					c0.014-0.266,0.245-0.472,0.508-0.458c0.266,0.014,0.472,0.241,0.458,0.508c-0.033,0.642-0.063,1.285-0.092,1.928
					C61.225,219.161,61.011,219.363,60.754,219.363z M61.138,212.606c-0.011,0-0.023-0.001-0.034-0.001
					c-0.266-0.018-0.467-0.249-0.449-0.516c0.045-0.644,0.093-1.288,0.143-1.932c0.021-0.267,0.242-0.469,0.52-0.445
					c0.266,0.021,0.465,0.254,0.444,0.52c-0.05,0.641-0.098,1.282-0.142,1.924C61.602,212.411,61.389,212.606,61.138,212.606z
					 M61.704,205.862c-0.016,0-0.032-0.001-0.048-0.002c-0.266-0.026-0.46-0.262-0.434-0.528c0.063-0.643,0.128-1.285,0.197-1.927
					c0.027-0.266,0.261-0.459,0.532-0.43c0.265,0.028,0.458,0.266,0.43,0.532c-0.067,0.639-0.133,1.28-0.196,1.919
					C62.16,205.675,61.95,205.862,61.704,205.862z M62.461,199.137c-0.02,0-0.041-0.001-0.061-0.004
					c-0.265-0.033-0.452-0.276-0.419-0.541c0.082-0.641,0.166-1.281,0.253-1.921c0.036-0.265,0.277-0.448,0.544-0.414
					c0.264,0.036,0.45,0.28,0.414,0.544c-0.087,0.637-0.171,1.274-0.252,1.912C62.91,198.958,62.701,199.137,62.461,199.137z
					 M63.415,192.438c-0.025,0-0.05-0.002-0.076-0.006c-0.264-0.041-0.444-0.289-0.402-0.553c0.1-0.638,0.204-1.275,0.311-1.912
					c0.044-0.263,0.291-0.443,0.557-0.397c0.264,0.044,0.441,0.293,0.397,0.557c-0.106,0.634-0.209,1.269-0.31,1.904
					C63.855,192.268,63.649,192.438,63.415,192.438z M64.575,185.771c-0.03,0-0.06-0.003-0.091-0.008
					c-0.262-0.05-0.434-0.303-0.384-0.566c0.121-0.635,0.245-1.269,0.372-1.902c0.052-0.262,0.309-0.435,0.569-0.379
					c0.262,0.052,0.432,0.307,0.379,0.569c-0.126,0.63-0.249,1.261-0.37,1.893C65.005,185.611,64.803,185.771,64.575,185.771z
					 M65.95,179.145c-0.035,0-0.071-0.004-0.106-0.012c-0.261-0.059-0.424-0.317-0.366-0.577c0.142-0.631,0.286-1.26,0.434-1.889
					c0.061-0.261,0.32-0.419,0.581-0.36c0.26,0.061,0.421,0.322,0.36,0.581c-0.147,0.626-0.291,1.252-0.432,1.879
					C66.37,178.992,66.171,179.145,65.95,179.145z M67.544,172.569c-0.041,0-0.082-0.005-0.122-0.016
					c-0.258-0.067-0.413-0.331-0.346-0.59c0.163-0.625,0.329-1.25,0.498-1.873c0.069-0.258,0.335-0.413,0.593-0.34
					c0.258,0.07,0.41,0.335,0.34,0.593c-0.168,0.62-0.333,1.241-0.495,1.864C67.955,172.425,67.759,172.569,67.544,172.569z
					 M69.366,166.052c-0.046,0-0.092-0.007-0.138-0.02c-0.256-0.077-0.401-0.346-0.325-0.602c0.185-0.62,0.374-1.238,0.565-1.855
					c0.08-0.255,0.349-0.396,0.605-0.318c0.255,0.079,0.398,0.35,0.318,0.605c-0.191,0.613-0.378,1.229-0.562,1.844
					C69.766,165.917,69.574,166.052,69.366,166.052z M71.424,159.605c-0.051,0-0.104-0.008-0.155-0.025
					c-0.253-0.086-0.388-0.361-0.303-0.613c0.208-0.612,0.419-1.223,0.634-1.833c0.088-0.252,0.365-0.385,0.617-0.296
					c0.252,0.089,0.384,0.365,0.296,0.617c-0.213,0.606-0.424,1.214-0.63,1.822C71.813,159.479,71.625,159.605,71.424,159.605z
					 M73.724,153.24c-0.058,0-0.116-0.01-0.172-0.032c-0.25-0.095-0.374-0.375-0.28-0.624c0.231-0.604,0.465-1.206,0.704-1.807
					c0.099-0.248,0.381-0.37,0.628-0.271c0.248,0.098,0.37,0.38,0.271,0.628c-0.237,0.597-0.47,1.196-0.699,1.796
					C74.102,153.122,73.918,153.24,73.724,153.24z M76.269,146.969c-0.064,0-0.129-0.013-0.191-0.039
					c-0.245-0.106-0.359-0.39-0.254-0.635c0.255-0.594,0.514-1.186,0.776-1.778c0.108-0.243,0.394-0.354,0.638-0.246
					c0.244,0.108,0.354,0.393,0.246,0.638c-0.26,0.588-0.518,1.178-0.771,1.768C76.634,146.859,76.456,146.969,76.269,146.969z
					 M79.065,140.805c-0.07,0-0.141-0.015-0.208-0.047c-0.241-0.115-0.343-0.404-0.228-0.645c0.279-0.584,0.562-1.166,0.848-1.745
					c0.118-0.239,0.41-0.338,0.647-0.22c0.24,0.118,0.338,0.408,0.219,0.647c-0.285,0.577-0.566,1.155-0.843,1.735
					C79.419,140.704,79.245,140.805,79.065,140.805z M82.117,134.761c-0.076,0-0.154-0.018-0.227-0.057
					c-0.236-0.126-0.325-0.418-0.2-0.654c0.304-0.571,0.611-1.14,0.922-1.708c0.128-0.234,0.422-0.321,0.656-0.192
					c0.234,0.128,0.32,0.422,0.192,0.656c-0.309,0.564-0.615,1.131-0.916,1.698C82.457,134.668,82.29,134.761,82.117,134.761z
					 M85.429,128.857c-0.084,0-0.169-0.022-0.246-0.067c-0.229-0.136-0.305-0.433-0.169-0.663c0.33-0.557,0.664-1.111,1.001-1.664
					c0.139-0.228,0.436-0.3,0.665-0.16c0.228,0.139,0.3,0.437,0.161,0.665c-0.336,0.549-0.667,1.1-0.995,1.653
					C85.755,128.772,85.594,128.857,85.429,128.857z M89.019,123.114c-0.091,0-0.184-0.026-0.266-0.08
					c-0.223-0.147-0.284-0.447-0.137-0.67c0.357-0.541,0.716-1.079,1.079-1.615c0.151-0.22,0.452-0.277,0.672-0.129
					c0.221,0.15,0.279,0.451,0.129,0.672c-0.361,0.532-0.718,1.067-1.072,1.604C89.33,123.038,89.176,123.114,89.019,123.114z
					 M92.877,117.548c-0.099,0-0.198-0.03-0.284-0.093c-0.216-0.157-0.263-0.459-0.106-0.675c0.381-0.523,0.766-1.043,1.153-1.562
					c0.16-0.213,0.463-0.258,0.677-0.097c0.213,0.16,0.257,0.463,0.097,0.677c-0.386,0.515-0.768,1.032-1.147,1.551
					C93.173,117.479,93.026,117.548,92.877,117.548z M96.991,112.171c-0.106,0-0.213-0.035-0.302-0.107
					c-0.208-0.167-0.242-0.471-0.074-0.68c0.406-0.505,0.814-1.007,1.226-1.506c0.168-0.206,0.473-0.236,0.68-0.065
					c0.206,0.17,0.235,0.474,0.065,0.68c-0.409,0.496-0.815,0.994-1.218,1.495C97.273,112.109,97.133,112.171,96.991,112.171z
					 M101.354,106.994c-0.114,0-0.229-0.04-0.32-0.121c-0.2-0.177-0.219-0.483-0.042-0.682c0.429-0.485,0.86-0.967,1.295-1.445
					c0.18-0.197,0.487-0.211,0.683-0.033c0.197,0.18,0.212,0.485,0.033,0.683c-0.432,0.475-0.861,0.954-1.287,1.435
					C101.621,106.939,101.488,106.994,101.354,106.994z M313.114,105.409c-0.06,0-0.122-0.011-0.181-0.035
					c-0.599-0.242-1.196-0.486-1.793-0.731c-0.246-0.102-0.365-0.384-0.263-0.631c0.102-0.247,0.385-0.364,0.632-0.263
					c0.595,0.245,1.191,0.488,1.788,0.729c0.247,0.1,0.367,0.382,0.267,0.629C313.486,105.295,313.305,105.409,313.114,105.409z
					 M306.864,102.814c-0.063,0-0.128-0.012-0.189-0.039l-1.78-0.76c-0.246-0.105-0.359-0.389-0.254-0.635
					c0.107-0.247,0.39-0.359,0.635-0.254l1.776,0.759c0.246,0.104,0.361,0.388,0.256,0.634
					C307.23,102.703,307.052,102.814,306.864,102.814z M105.957,102.033c-0.122,0-0.243-0.045-0.337-0.137
					c-0.192-0.187-0.196-0.492-0.009-0.684c0.451-0.464,0.906-0.924,1.363-1.381c0.189-0.189,0.495-0.189,0.684,0
					c0.189,0.189,0.189,0.495,0,0.684c-0.454,0.454-0.905,0.912-1.353,1.372C106.208,101.984,106.083,102.033,105.957,102.033z
					 M300.652,100.125c-0.065,0-0.131-0.013-0.194-0.041l-1.771-0.782c-0.244-0.109-0.354-0.394-0.245-0.638
					c0.11-0.245,0.394-0.355,0.638-0.246l1.767,0.781c0.245,0.107,0.356,0.393,0.248,0.637
					C301.015,100.018,300.839,100.125,300.652,100.125z M294.471,97.367c-0.067,0-0.134-0.014-0.198-0.043l-1.763-0.797
					c-0.244-0.11-0.351-0.397-0.241-0.64c0.11-0.243,0.401-0.349,0.639-0.241l1.761,0.797c0.244,0.11,0.352,0.396,0.243,0.639
					C294.831,97.261,294.655,97.367,294.471,97.367z M110.791,97.299c-0.129,0-0.258-0.051-0.354-0.154
					c-0.182-0.195-0.171-0.501,0.024-0.683c0.473-0.441,0.949-0.879,1.428-1.313c0.198-0.178,0.504-0.164,0.683,0.034
					c0.179,0.198,0.164,0.504-0.033,0.683c-0.476,0.431-0.948,0.865-1.418,1.304C111.028,97.256,110.91,97.299,110.791,97.299z
					 M288.309,94.566c-0.068,0-0.136-0.014-0.201-0.044l-1.76-0.806c-0.243-0.111-0.348-0.398-0.237-0.641
					c0.112-0.243,0.398-0.348,0.641-0.238l1.758,0.805c0.243,0.111,0.349,0.398,0.239,0.641
					C288.667,94.461,288.492,94.566,288.309,94.566z M115.851,92.808c-0.137,0-0.274-0.058-0.369-0.171
					c-0.172-0.204-0.147-0.509,0.057-0.681c0.494-0.417,0.991-0.831,1.491-1.241c0.206-0.17,0.511-0.139,0.68,0.068
					c0.169,0.206,0.139,0.511-0.067,0.68c-0.496,0.407-0.99,0.818-1.48,1.231C116.072,92.77,115.962,92.808,115.851,92.808z
					 M282.156,91.745c-0.068,0-0.136-0.014-0.201-0.044l-1.759-0.806c-0.243-0.112-0.348-0.399-0.237-0.641
					c0.111-0.244,0.397-0.348,0.641-0.238l1.757,0.806c0.243,0.111,0.349,0.398,0.238,0.641
					C282.513,91.64,282.339,91.745,282.156,91.745z M276.001,88.929c-0.067,0-0.135-0.014-0.2-0.043l-1.76-0.8
					c-0.243-0.11-0.35-0.397-0.24-0.64c0.11-0.244,0.397-0.35,0.64-0.24l1.76,0.8c0.244,0.111,0.35,0.398,0.24,0.641
					C276.359,88.824,276.184,88.929,276.001,88.929z M121.129,88.575c-0.146,0-0.29-0.066-0.385-0.191
					c-0.162-0.212-0.12-0.516,0.092-0.678c0.515-0.392,1.032-0.78,1.551-1.163c0.214-0.158,0.518-0.113,0.676,0.102
					c0.159,0.215,0.113,0.518-0.102,0.676c-0.516,0.381-1.029,0.766-1.54,1.155C121.334,88.543,121.231,88.575,121.129,88.575z
					 M269.832,86.142c-0.066,0-0.133-0.014-0.197-0.042l-1.766-0.787c-0.244-0.109-0.354-0.394-0.246-0.638
					c0.109-0.245,0.395-0.354,0.638-0.246l1.768,0.788c0.244,0.11,0.353,0.395,0.244,0.639
					C270.192,86.035,270.016,86.142,269.832,86.142z M126.615,84.619c-0.154,0-0.306-0.074-0.4-0.211
					c-0.151-0.22-0.094-0.521,0.126-0.672c0.535-0.365,1.071-0.725,1.611-1.081c0.223-0.146,0.523-0.086,0.67,0.137
					c0.147,0.223,0.085,0.523-0.137,0.67c-0.535,0.353-1.068,0.711-1.597,1.073C126.803,84.592,126.709,84.619,126.615,84.619z
					 M263.638,83.411c-0.064,0-0.129-0.013-0.192-0.04l-1.773-0.763c-0.245-0.105-0.36-0.39-0.255-0.635
					c0.105-0.245,0.391-0.36,0.635-0.255l1.777,0.765c0.246,0.106,0.358,0.391,0.252,0.636
					C264.002,83.302,263.825,83.411,263.638,83.411z M132.3,80.958c-0.163,0-0.323-0.083-0.414-0.233
					c-0.139-0.228-0.066-0.525,0.162-0.664c0.552-0.336,1.108-0.667,1.665-0.993c0.23-0.135,0.526-0.058,0.662,0.173
					c0.135,0.23,0.058,0.527-0.173,0.662c-0.553,0.324-1.104,0.652-1.653,0.985C132.472,80.935,132.386,80.958,132.3,80.958z
					 M257.408,80.768c-0.062,0-0.125-0.012-0.185-0.037c-0.594-0.246-1.189-0.492-1.786-0.735c-0.247-0.101-0.366-0.383-0.265-0.63
					c0.101-0.248,0.385-0.366,0.63-0.265c0.599,0.244,1.195,0.49,1.791,0.737c0.246,0.102,0.363,0.385,0.262,0.632
					C257.778,80.657,257.598,80.768,257.408,80.768z M251.133,78.234c-0.059,0-0.119-0.011-0.176-0.034
					c-0.599-0.235-1.198-0.468-1.799-0.7c-0.249-0.096-0.373-0.376-0.278-0.625c0.096-0.249,0.378-0.373,0.625-0.278
					c0.602,0.232,1.204,0.467,1.804,0.703c0.248,0.098,0.371,0.378,0.274,0.626C251.508,78.118,251.326,78.234,251.133,78.234z
					 M138.178,77.61c-0.173,0-0.34-0.093-0.427-0.255c-0.126-0.236-0.037-0.528,0.198-0.654c0.57-0.305,1.144-0.605,1.719-0.899
					c0.236-0.124,0.529-0.029,0.651,0.21c0.122,0.237,0.028,0.529-0.21,0.651c-0.57,0.293-1.138,0.59-1.704,0.892
					C138.332,77.591,138.255,77.61,138.178,77.61z M244.804,75.833c-0.055,0-0.111-0.01-0.166-0.029
					c-0.605-0.222-1.21-0.441-1.816-0.658c-0.251-0.09-0.382-0.366-0.292-0.618c0.09-0.251,0.366-0.382,0.618-0.292
					c0.608,0.218,1.216,0.438,1.822,0.66c0.251,0.092,0.38,0.37,0.288,0.62C245.186,75.711,245.001,75.833,244.804,75.833z
					 M144.232,74.597c-0.183,0-0.357-0.104-0.439-0.281c-0.112-0.242-0.007-0.53,0.236-0.642c0.587-0.272,1.177-0.538,1.768-0.8
					c0.244-0.109,0.53,0.002,0.638,0.246c0.108,0.245-0.002,0.53-0.246,0.638c-0.586,0.26-1.171,0.524-1.754,0.793
					C144.369,74.583,144.3,74.597,144.232,74.597z M238.417,73.587c-0.051,0-0.103-0.008-0.154-0.025
					c-0.61-0.205-1.221-0.408-1.832-0.609c-0.254-0.083-0.392-0.356-0.309-0.61c0.083-0.254,0.355-0.394,0.61-0.309
					c0.613,0.201,1.227,0.405,1.84,0.611c0.253,0.085,0.389,0.359,0.304,0.612C238.808,73.46,238.619,73.587,238.417,73.587z
					 M150.452,71.94c-0.193,0-0.375-0.116-0.45-0.307c-0.098-0.249,0.025-0.529,0.273-0.626c0.602-0.237,1.207-0.468,1.814-0.694
					c0.25-0.092,0.528,0.035,0.622,0.285c0.093,0.25-0.035,0.528-0.285,0.622c-0.601,0.224-1.201,0.453-1.798,0.687
					C150.571,71.929,150.511,71.94,150.452,71.94z M231.97,71.523c-0.046,0-0.094-0.007-0.14-0.021
					c-0.616-0.187-1.233-0.371-1.85-0.551c-0.256-0.075-0.403-0.344-0.328-0.6c0.076-0.256,0.344-0.402,0.6-0.328
					c0.62,0.182,1.24,0.366,1.859,0.554c0.256,0.077,0.4,0.348,0.322,0.603C232.369,71.388,232.178,71.523,231.97,71.523z
					 M225.459,69.666c-0.041,0-0.083-0.005-0.125-0.016c-0.622-0.166-1.244-0.328-1.868-0.487c-0.259-0.066-0.415-0.329-0.349-0.588
					c0.066-0.259,0.326-0.417,0.588-0.349c0.627,0.16,1.253,0.323,1.878,0.49c0.258,0.068,0.411,0.333,0.342,0.592
					C225.868,69.524,225.673,69.666,225.459,69.666z M156.822,69.661c-0.204,0-0.394-0.13-0.46-0.335
					c-0.082-0.254,0.057-0.526,0.311-0.609c0.616-0.199,1.234-0.393,1.853-0.582c0.258-0.078,0.525,0.067,0.603,0.322
					c0.077,0.255-0.066,0.525-0.322,0.603c-0.614,0.187-1.227,0.379-1.837,0.576C156.921,69.653,156.871,69.661,156.822,69.661z
					 M218.885,68.049c-0.035,0-0.071-0.004-0.107-0.012c-0.628-0.142-1.256-0.28-1.885-0.413c-0.261-0.056-0.428-0.313-0.372-0.574
					c0.056-0.261,0.312-0.429,0.574-0.373c0.632,0.135,1.264,0.273,1.896,0.416c0.261,0.059,0.424,0.318,0.365,0.578
					C219.306,67.896,219.106,68.049,218.885,68.049z M163.322,67.78c-0.216,0-0.412-0.145-0.468-0.364
					c-0.066-0.259,0.09-0.522,0.349-0.588c0.628-0.16,1.257-0.314,1.888-0.464c0.257-0.061,0.52,0.1,0.582,0.36
					c0.061,0.26-0.1,0.52-0.36,0.582c-0.625,0.147-1.249,0.301-1.871,0.459C163.402,67.775,163.362,67.78,163.322,67.78z
					 M212.251,66.7c-0.028,0-0.057-0.002-0.086-0.008c-0.633-0.115-1.267-0.225-1.9-0.331c-0.263-0.044-0.441-0.294-0.397-0.557
					c0.044-0.264,0.291-0.441,0.557-0.397c0.638,0.107,1.276,0.218,1.913,0.333c0.263,0.048,0.437,0.299,0.39,0.562
					C212.684,66.536,212.481,66.7,212.251,66.7z M169.932,66.318c-0.228,0-0.431-0.162-0.474-0.394
					c-0.05-0.262,0.123-0.515,0.386-0.564c0.637-0.12,1.276-0.233,1.916-0.341c0.267-0.042,0.513,0.134,0.557,0.397
					c0.044,0.263-0.133,0.513-0.397,0.557c-0.634,0.107-1.266,0.219-1.898,0.337C169.992,66.315,169.962,66.318,169.932,66.318z
					 M205.564,65.651c-0.021,0-0.043-0.001-0.064-0.004c-0.637-0.084-1.275-0.164-1.913-0.239c-0.265-0.031-0.455-0.271-0.424-0.537
					c0.031-0.265,0.269-0.453,0.537-0.424c0.643,0.076,1.285,0.156,1.926,0.241c0.265,0.035,0.451,0.278,0.416,0.542
					C206.01,65.474,205.802,65.651,205.564,65.651z M176.628,65.291c-0.241,0-0.45-0.18-0.48-0.426
					c-0.032-0.265,0.157-0.506,0.423-0.538c0.644-0.077,1.289-0.148,1.936-0.213c0.272-0.023,0.503,0.168,0.529,0.433
					c0.026,0.266-0.168,0.503-0.433,0.529c-0.64,0.064-1.279,0.134-1.917,0.211C176.666,65.29,176.646,65.291,176.628,65.291z
					 M198.834,64.935c-0.013,0-0.026,0-0.039-0.001c-0.64-0.051-1.281-0.097-1.921-0.139c-0.266-0.018-0.468-0.247-0.451-0.514
					c0.017-0.267,0.251-0.46,0.514-0.451c0.645,0.042,1.291,0.088,1.936,0.14c0.266,0.021,0.465,0.255,0.443,0.521
					C199.295,64.743,199.084,64.935,198.834,64.935z M183.376,64.709c-0.255,0-0.468-0.2-0.482-0.457
					c-0.015-0.266,0.19-0.494,0.457-0.509c0.647-0.035,1.294-0.064,1.94-0.087c0.278-0.022,0.491,0.199,0.501,0.465
					c0.01,0.267-0.199,0.491-0.466,0.501c-0.641,0.023-1.282,0.052-1.923,0.086C183.394,64.709,183.385,64.709,183.376,64.709z
					 M192.076,64.583c-0.004,0-0.008,0-0.011,0c-0.642-0.015-1.283-0.025-1.925-0.03c-0.267-0.002-0.482-0.22-0.48-0.487
					c0.002-0.266,0.218-0.48,0.483-0.48c0.001,0,0.002,0,0.004,0c0.647,0.005,1.295,0.015,1.941,0.03
					c0.267,0.007,0.478,0.228,0.472,0.495C192.553,64.373,192.338,64.583,192.076,64.583z"/>
				<path style="opacity:0.6;fill:#FFFFFF;" d="M60.546,226.129c-0.003,0-0.006,0-0.009,0c-0.267-0.005-0.479-0.225-0.475-0.493
					c0.012-0.645,0.025-1.291,0.042-1.937c0.007-0.266,0.207-0.47,0.496-0.471c0.267,0.007,0.478,0.229,0.471,0.495
					c-0.016,0.643-0.03,1.287-0.042,1.931C61.025,225.918,60.809,226.129,60.546,226.129z M60.754,219.363
					c-0.007,0-0.015,0-0.022-0.001c-0.267-0.012-0.473-0.238-0.462-0.504c0.028-0.645,0.059-1.29,0.092-1.935
					c0.014-0.266,0.245-0.472,0.508-0.458c0.266,0.014,0.472,0.241,0.458,0.508c-0.033,0.642-0.063,1.285-0.092,1.928
					C61.225,219.161,61.011,219.363,60.754,219.363z M61.138,212.606c-0.011,0-0.023-0.001-0.034-0.001
					c-0.266-0.018-0.467-0.249-0.449-0.516c0.045-0.644,0.093-1.288,0.143-1.932c0.021-0.267,0.242-0.469,0.52-0.445
					c0.266,0.021,0.465,0.254,0.444,0.52c-0.05,0.641-0.098,1.282-0.142,1.924C61.602,212.411,61.389,212.606,61.138,212.606z
					 M61.704,205.862c-0.016,0-0.032-0.001-0.048-0.002c-0.266-0.026-0.46-0.262-0.434-0.528c0.063-0.643,0.128-1.285,0.197-1.927
					c0.027-0.266,0.261-0.459,0.532-0.43c0.265,0.028,0.458,0.266,0.43,0.532c-0.067,0.639-0.133,1.28-0.196,1.919
					C62.16,205.675,61.95,205.862,61.704,205.862z M62.461,199.137c-0.02,0-0.041-0.001-0.061-0.004
					c-0.265-0.033-0.452-0.276-0.419-0.541c0.082-0.641,0.166-1.281,0.253-1.921c0.036-0.265,0.277-0.448,0.544-0.414
					c0.264,0.036,0.45,0.28,0.414,0.544c-0.087,0.637-0.171,1.274-0.252,1.912C62.91,198.958,62.701,199.137,62.461,199.137z
					 M63.415,192.438c-0.025,0-0.05-0.002-0.076-0.006c-0.264-0.041-0.444-0.289-0.402-0.553c0.1-0.638,0.204-1.275,0.311-1.912
					c0.044-0.263,0.291-0.443,0.557-0.397c0.264,0.044,0.441,0.293,0.397,0.557c-0.106,0.634-0.209,1.269-0.31,1.904
					C63.855,192.268,63.649,192.438,63.415,192.438z M64.575,185.771c-0.03,0-0.06-0.003-0.091-0.008
					c-0.262-0.05-0.434-0.303-0.384-0.566c0.121-0.635,0.245-1.269,0.372-1.902c0.052-0.262,0.309-0.435,0.569-0.379
					c0.262,0.052,0.432,0.307,0.379,0.569c-0.126,0.63-0.249,1.261-0.37,1.893C65.005,185.611,64.803,185.771,64.575,185.771z
					 M65.95,179.145c-0.035,0-0.071-0.004-0.106-0.012c-0.261-0.059-0.424-0.317-0.366-0.577c0.142-0.631,0.286-1.26,0.434-1.889
					c0.061-0.261,0.32-0.419,0.581-0.36c0.26,0.061,0.421,0.322,0.36,0.581c-0.147,0.626-0.291,1.252-0.432,1.879
					C66.37,178.992,66.171,179.145,65.95,179.145z M67.544,172.569c-0.041,0-0.082-0.005-0.122-0.016
					c-0.258-0.067-0.413-0.331-0.346-0.59c0.163-0.625,0.329-1.25,0.498-1.873c0.069-0.258,0.335-0.413,0.593-0.34
					c0.258,0.07,0.41,0.335,0.34,0.593c-0.168,0.62-0.333,1.241-0.495,1.864C67.955,172.425,67.759,172.569,67.544,172.569z
					 M69.366,166.052c-0.046,0-0.092-0.007-0.138-0.02c-0.256-0.077-0.401-0.346-0.325-0.602c0.185-0.62,0.374-1.238,0.565-1.855
					c0.08-0.255,0.349-0.396,0.605-0.318c0.255,0.079,0.398,0.35,0.318,0.605c-0.191,0.613-0.378,1.229-0.562,1.844
					C69.766,165.917,69.574,166.052,69.366,166.052z M71.424,159.605c-0.051,0-0.104-0.008-0.155-0.025
					c-0.253-0.086-0.388-0.361-0.303-0.613c0.208-0.612,0.419-1.223,0.634-1.833c0.088-0.252,0.365-0.385,0.617-0.296
					c0.252,0.089,0.384,0.365,0.296,0.617c-0.213,0.606-0.424,1.214-0.63,1.822C71.813,159.479,71.625,159.605,71.424,159.605z
					 M73.724,153.24c-0.058,0-0.116-0.01-0.172-0.032c-0.25-0.095-0.374-0.375-0.28-0.624c0.231-0.604,0.465-1.206,0.704-1.807
					c0.099-0.248,0.381-0.37,0.628-0.271c0.248,0.098,0.37,0.38,0.271,0.628c-0.237,0.597-0.47,1.196-0.699,1.796
					C74.102,153.122,73.918,153.24,73.724,153.24z M76.269,146.969c-0.064,0-0.129-0.013-0.191-0.039
					c-0.245-0.106-0.359-0.39-0.254-0.635c0.255-0.594,0.514-1.186,0.776-1.778c0.108-0.243,0.394-0.354,0.638-0.246
					c0.244,0.108,0.354,0.393,0.246,0.638c-0.26,0.588-0.518,1.178-0.771,1.768C76.634,146.859,76.456,146.969,76.269,146.969z
					 M79.065,140.805c-0.07,0-0.141-0.015-0.208-0.047c-0.241-0.115-0.343-0.404-0.228-0.645c0.279-0.584,0.562-1.166,0.848-1.745
					c0.118-0.239,0.41-0.338,0.647-0.22c0.24,0.118,0.338,0.408,0.219,0.647c-0.285,0.577-0.566,1.155-0.843,1.735
					C79.419,140.704,79.245,140.805,79.065,140.805z M82.117,134.761c-0.076,0-0.154-0.018-0.227-0.057
					c-0.236-0.126-0.325-0.418-0.2-0.654c0.304-0.571,0.611-1.14,0.922-1.708c0.128-0.234,0.422-0.321,0.656-0.192
					c0.234,0.128,0.32,0.422,0.192,0.656c-0.309,0.564-0.615,1.131-0.916,1.698C82.457,134.668,82.29,134.761,82.117,134.761z
					 M85.429,128.857c-0.084,0-0.169-0.022-0.246-0.067c-0.229-0.136-0.305-0.433-0.169-0.663c0.33-0.557,0.664-1.111,1.001-1.664
					c0.139-0.228,0.436-0.3,0.665-0.16c0.228,0.139,0.3,0.437,0.161,0.665c-0.336,0.549-0.667,1.1-0.995,1.653
					C85.755,128.772,85.594,128.857,85.429,128.857z M89.019,123.114c-0.091,0-0.184-0.026-0.266-0.08
					c-0.223-0.147-0.284-0.447-0.137-0.67c0.357-0.541,0.716-1.079,1.079-1.615c0.151-0.22,0.452-0.277,0.672-0.129
					c0.221,0.15,0.279,0.451,0.129,0.672c-0.361,0.532-0.718,1.067-1.072,1.604C89.33,123.038,89.176,123.114,89.019,123.114z
					 M92.877,117.548c-0.099,0-0.198-0.03-0.284-0.093c-0.216-0.157-0.263-0.459-0.106-0.675c0.381-0.523,0.766-1.043,1.153-1.562
					c0.16-0.213,0.463-0.258,0.677-0.097c0.213,0.16,0.257,0.463,0.097,0.677c-0.386,0.515-0.768,1.032-1.147,1.551
					C93.173,117.479,93.026,117.548,92.877,117.548z M96.991,112.171c-0.106,0-0.213-0.035-0.302-0.107
					c-0.208-0.167-0.242-0.471-0.074-0.68c0.406-0.505,0.814-1.007,1.226-1.506c0.168-0.206,0.473-0.236,0.68-0.065
					c0.206,0.17,0.235,0.474,0.065,0.68c-0.409,0.496-0.815,0.994-1.218,1.495C97.273,112.109,97.133,112.171,96.991,112.171z
					 M101.354,106.994c-0.114,0-0.229-0.04-0.32-0.121c-0.2-0.177-0.219-0.483-0.042-0.682c0.429-0.485,0.86-0.967,1.295-1.445
					c0.18-0.197,0.487-0.211,0.683-0.033c0.197,0.18,0.212,0.485,0.033,0.683c-0.432,0.475-0.861,0.954-1.287,1.435
					C101.621,106.939,101.488,106.994,101.354,106.994z M313.114,105.409c-0.06,0-0.122-0.011-0.181-0.035
					c-0.599-0.242-1.196-0.486-1.793-0.731c-0.246-0.102-0.365-0.384-0.263-0.631c0.102-0.247,0.385-0.364,0.632-0.263
					c0.595,0.245,1.191,0.488,1.788,0.729c0.247,0.1,0.367,0.382,0.267,0.629C313.486,105.295,313.305,105.409,313.114,105.409z
					 M306.864,102.814c-0.063,0-0.128-0.012-0.189-0.039l-1.78-0.76c-0.246-0.105-0.359-0.389-0.254-0.635
					c0.107-0.247,0.39-0.359,0.635-0.254l1.776,0.759c0.246,0.104,0.361,0.388,0.256,0.634
					C307.23,102.703,307.052,102.814,306.864,102.814z M105.957,102.033c-0.122,0-0.243-0.045-0.337-0.137
					c-0.192-0.187-0.196-0.492-0.009-0.684c0.451-0.464,0.906-0.924,1.363-1.381c0.189-0.189,0.495-0.189,0.684,0
					c0.189,0.189,0.189,0.495,0,0.684c-0.454,0.454-0.905,0.912-1.353,1.372C106.208,101.984,106.083,102.033,105.957,102.033z
					 M300.652,100.125c-0.065,0-0.131-0.013-0.194-0.041l-1.771-0.782c-0.244-0.109-0.354-0.394-0.245-0.638
					c0.11-0.245,0.394-0.355,0.638-0.246l1.767,0.781c0.245,0.107,0.356,0.393,0.248,0.637
					C301.015,100.018,300.839,100.125,300.652,100.125z M294.471,97.367c-0.067,0-0.134-0.014-0.198-0.043l-1.763-0.797
					c-0.244-0.11-0.351-0.397-0.241-0.64c0.11-0.243,0.401-0.349,0.639-0.241l1.761,0.797c0.244,0.11,0.352,0.396,0.243,0.639
					C294.831,97.261,294.655,97.367,294.471,97.367z M110.791,97.299c-0.129,0-0.258-0.051-0.354-0.154
					c-0.182-0.195-0.171-0.501,0.024-0.683c0.473-0.441,0.949-0.879,1.428-1.313c0.198-0.178,0.504-0.164,0.683,0.034
					c0.179,0.198,0.164,0.504-0.033,0.683c-0.476,0.431-0.948,0.865-1.418,1.304C111.028,97.256,110.91,97.299,110.791,97.299z
					 M288.309,94.566c-0.068,0-0.136-0.014-0.201-0.044l-1.76-0.806c-0.243-0.111-0.348-0.398-0.237-0.641
					c0.112-0.243,0.398-0.348,0.641-0.238l1.758,0.805c0.243,0.111,0.349,0.398,0.239,0.641
					C288.667,94.461,288.492,94.566,288.309,94.566z M115.851,92.808c-0.137,0-0.274-0.058-0.369-0.171
					c-0.172-0.204-0.147-0.509,0.057-0.681c0.494-0.417,0.991-0.831,1.491-1.241c0.206-0.17,0.511-0.139,0.68,0.068
					c0.169,0.206,0.139,0.511-0.067,0.68c-0.496,0.407-0.99,0.818-1.48,1.231C116.072,92.77,115.962,92.808,115.851,92.808z
					 M282.156,91.745c-0.068,0-0.136-0.014-0.201-0.044l-1.759-0.806c-0.243-0.112-0.348-0.399-0.237-0.641
					c0.111-0.244,0.397-0.348,0.641-0.238l1.757,0.806c0.243,0.111,0.349,0.398,0.238,0.641
					C282.513,91.64,282.339,91.745,282.156,91.745z M276.001,88.929c-0.067,0-0.135-0.014-0.2-0.043l-1.76-0.8
					c-0.243-0.11-0.35-0.397-0.24-0.64c0.11-0.244,0.397-0.35,0.64-0.24l1.76,0.8c0.244,0.111,0.35,0.398,0.24,0.641
					C276.359,88.824,276.184,88.929,276.001,88.929z M121.129,88.575c-0.146,0-0.29-0.066-0.385-0.191
					c-0.162-0.212-0.12-0.516,0.092-0.678c0.515-0.392,1.032-0.78,1.551-1.163c0.214-0.158,0.518-0.113,0.676,0.102
					c0.159,0.215,0.113,0.518-0.102,0.676c-0.516,0.381-1.029,0.766-1.54,1.155C121.334,88.543,121.231,88.575,121.129,88.575z
					 M269.832,86.142c-0.066,0-0.133-0.014-0.197-0.042l-1.766-0.787c-0.244-0.109-0.354-0.394-0.246-0.638
					c0.109-0.245,0.395-0.354,0.638-0.246l1.768,0.788c0.244,0.11,0.353,0.395,0.244,0.639
					C270.192,86.035,270.016,86.142,269.832,86.142z M126.615,84.619c-0.154,0-0.306-0.074-0.4-0.211
					c-0.151-0.22-0.094-0.521,0.126-0.672c0.535-0.365,1.071-0.725,1.611-1.081c0.223-0.146,0.523-0.086,0.67,0.137
					c0.147,0.223,0.085,0.523-0.137,0.67c-0.535,0.353-1.068,0.711-1.597,1.073C126.803,84.592,126.709,84.619,126.615,84.619z
					 M263.638,83.411c-0.064,0-0.129-0.013-0.192-0.04l-1.773-0.763c-0.245-0.105-0.36-0.39-0.255-0.635
					c0.105-0.245,0.391-0.36,0.635-0.255l1.777,0.765c0.246,0.106,0.358,0.391,0.252,0.636
					C264.002,83.302,263.825,83.411,263.638,83.411z M132.3,80.958c-0.163,0-0.323-0.083-0.414-0.233
					c-0.139-0.228-0.066-0.525,0.162-0.664c0.552-0.336,1.108-0.667,1.665-0.993c0.23-0.135,0.526-0.058,0.662,0.173
					c0.135,0.23,0.058,0.527-0.173,0.662c-0.553,0.324-1.104,0.652-1.653,0.985C132.472,80.935,132.386,80.958,132.3,80.958z
					 M257.408,80.768c-0.062,0-0.125-0.012-0.185-0.037c-0.594-0.246-1.189-0.492-1.786-0.735c-0.247-0.101-0.366-0.383-0.265-0.63
					c0.101-0.248,0.385-0.366,0.63-0.265c0.599,0.244,1.195,0.49,1.791,0.737c0.246,0.102,0.363,0.385,0.262,0.632
					C257.778,80.657,257.598,80.768,257.408,80.768z M251.133,78.234c-0.059,0-0.119-0.011-0.176-0.034
					c-0.599-0.235-1.198-0.468-1.799-0.7c-0.249-0.096-0.373-0.376-0.278-0.625c0.096-0.249,0.378-0.373,0.625-0.278
					c0.602,0.232,1.204,0.467,1.804,0.703c0.248,0.098,0.371,0.378,0.274,0.626C251.508,78.118,251.326,78.234,251.133,78.234z
					 M138.178,77.61c-0.173,0-0.34-0.093-0.427-0.255c-0.126-0.236-0.037-0.528,0.198-0.654c0.57-0.305,1.144-0.605,1.719-0.899
					c0.236-0.124,0.529-0.029,0.651,0.21c0.122,0.237,0.028,0.529-0.21,0.651c-0.57,0.293-1.138,0.59-1.704,0.892
					C138.332,77.591,138.255,77.61,138.178,77.61z M244.804,75.833c-0.055,0-0.111-0.01-0.166-0.029
					c-0.605-0.222-1.21-0.441-1.816-0.658c-0.251-0.09-0.382-0.366-0.292-0.618c0.09-0.251,0.366-0.382,0.618-0.292
					c0.608,0.218,1.216,0.438,1.822,0.66c0.251,0.092,0.38,0.37,0.288,0.62C245.186,75.711,245.001,75.833,244.804,75.833z
					 M144.232,74.597c-0.183,0-0.357-0.104-0.439-0.281c-0.112-0.242-0.007-0.53,0.236-0.642c0.587-0.272,1.177-0.538,1.768-0.8
					c0.244-0.109,0.53,0.002,0.638,0.246c0.108,0.245-0.002,0.53-0.246,0.638c-0.586,0.26-1.171,0.524-1.754,0.793
					C144.369,74.583,144.3,74.597,144.232,74.597z M238.417,73.587c-0.051,0-0.103-0.008-0.154-0.025
					c-0.61-0.205-1.221-0.408-1.832-0.609c-0.254-0.083-0.392-0.356-0.309-0.61c0.083-0.254,0.355-0.394,0.61-0.309
					c0.613,0.201,1.227,0.405,1.84,0.611c0.253,0.085,0.389,0.359,0.304,0.612C238.808,73.46,238.619,73.587,238.417,73.587z
					 M150.452,71.94c-0.193,0-0.375-0.116-0.45-0.307c-0.098-0.249,0.025-0.529,0.273-0.626c0.602-0.237,1.207-0.468,1.814-0.694
					c0.25-0.092,0.528,0.035,0.622,0.285c0.093,0.25-0.035,0.528-0.285,0.622c-0.601,0.224-1.201,0.453-1.798,0.687
					C150.571,71.929,150.511,71.94,150.452,71.94z M231.97,71.523c-0.046,0-0.094-0.007-0.14-0.021
					c-0.616-0.187-1.233-0.371-1.85-0.551c-0.256-0.075-0.403-0.344-0.328-0.6c0.076-0.256,0.344-0.402,0.6-0.328
					c0.62,0.182,1.24,0.366,1.859,0.554c0.256,0.077,0.4,0.348,0.322,0.603C232.369,71.388,232.178,71.523,231.97,71.523z
					 M225.459,69.666c-0.041,0-0.083-0.005-0.125-0.016c-0.622-0.166-1.244-0.328-1.868-0.487c-0.259-0.066-0.415-0.329-0.349-0.588
					c0.066-0.259,0.326-0.417,0.588-0.349c0.627,0.16,1.253,0.323,1.878,0.49c0.258,0.068,0.411,0.333,0.342,0.592
					C225.868,69.524,225.673,69.666,225.459,69.666z M156.822,69.661c-0.204,0-0.394-0.13-0.46-0.335
					c-0.082-0.254,0.057-0.526,0.311-0.609c0.616-0.199,1.234-0.393,1.853-0.582c0.258-0.078,0.525,0.067,0.603,0.322
					c0.077,0.255-0.066,0.525-0.322,0.603c-0.614,0.187-1.227,0.379-1.837,0.576C156.921,69.653,156.871,69.661,156.822,69.661z
					 M218.885,68.049c-0.035,0-0.071-0.004-0.107-0.012c-0.628-0.142-1.256-0.28-1.885-0.413c-0.261-0.056-0.428-0.313-0.372-0.574
					c0.056-0.261,0.312-0.429,0.574-0.373c0.632,0.135,1.264,0.273,1.896,0.416c0.261,0.059,0.424,0.318,0.365,0.578
					C219.306,67.896,219.106,68.049,218.885,68.049z M163.322,67.78c-0.216,0-0.412-0.145-0.468-0.364
					c-0.066-0.259,0.09-0.522,0.349-0.588c0.628-0.16,1.257-0.314,1.888-0.464c0.257-0.061,0.52,0.1,0.582,0.36
					c0.061,0.26-0.1,0.52-0.36,0.582c-0.625,0.147-1.249,0.301-1.871,0.459C163.402,67.775,163.362,67.78,163.322,67.78z
					 M212.251,66.7c-0.028,0-0.057-0.002-0.086-0.008c-0.633-0.115-1.267-0.225-1.9-0.331c-0.263-0.044-0.441-0.294-0.397-0.557
					c0.044-0.264,0.291-0.441,0.557-0.397c0.638,0.107,1.276,0.218,1.913,0.333c0.263,0.048,0.437,0.299,0.39,0.562
					C212.684,66.536,212.481,66.7,212.251,66.7z M169.932,66.318c-0.228,0-0.431-0.162-0.474-0.394
					c-0.05-0.262,0.123-0.515,0.386-0.564c0.637-0.12,1.276-0.233,1.916-0.341c0.267-0.042,0.513,0.134,0.557,0.397
					c0.044,0.263-0.133,0.513-0.397,0.557c-0.634,0.107-1.266,0.219-1.898,0.337C169.992,66.315,169.962,66.318,169.932,66.318z
					 M205.564,65.651c-0.021,0-0.043-0.001-0.064-0.004c-0.637-0.084-1.275-0.164-1.913-0.239c-0.265-0.031-0.455-0.271-0.424-0.537
					c0.031-0.265,0.269-0.453,0.537-0.424c0.643,0.076,1.285,0.156,1.926,0.241c0.265,0.035,0.451,0.278,0.416,0.542
					C206.01,65.474,205.802,65.651,205.564,65.651z M176.628,65.291c-0.241,0-0.45-0.18-0.48-0.426
					c-0.032-0.265,0.157-0.506,0.423-0.538c0.644-0.077,1.289-0.148,1.936-0.213c0.272-0.023,0.503,0.168,0.529,0.433
					c0.026,0.266-0.168,0.503-0.433,0.529c-0.64,0.064-1.279,0.134-1.917,0.211C176.666,65.29,176.646,65.291,176.628,65.291z
					 M198.834,64.935c-0.013,0-0.026,0-0.039-0.001c-0.64-0.051-1.281-0.097-1.921-0.139c-0.266-0.018-0.468-0.247-0.451-0.514
					c0.017-0.267,0.251-0.46,0.514-0.451c0.645,0.042,1.291,0.088,1.936,0.14c0.266,0.021,0.465,0.255,0.443,0.521
					C199.295,64.743,199.084,64.935,198.834,64.935z M183.376,64.709c-0.255,0-0.468-0.2-0.482-0.457
					c-0.015-0.266,0.19-0.494,0.457-0.509c0.647-0.035,1.294-0.064,1.94-0.087c0.278-0.022,0.491,0.199,0.501,0.465
					c0.01,0.267-0.199,0.491-0.466,0.501c-0.641,0.023-1.282,0.052-1.923,0.086C183.394,64.709,183.385,64.709,183.376,64.709z
					 M192.076,64.583c-0.004,0-0.008,0-0.011,0c-0.642-0.015-1.283-0.025-1.925-0.03c-0.267-0.002-0.482-0.22-0.48-0.487
					c0.002-0.266,0.218-0.48,0.483-0.48c0.001,0,0.002,0,0.004,0c0.647,0.005,1.295,0.015,1.941,0.03
					c0.267,0.007,0.478,0.228,0.472,0.495C192.553,64.373,192.338,64.583,192.076,64.583z"/>
			</g>
			<g>
				<path style="fill:#11998E;" d="M436.034,245.735c-0.072,0-0.145-0.016-0.212-0.049c-0.24-0.118-0.339-0.407-0.222-0.647
					c0.282-0.576,0.56-1.155,0.832-1.737c0.115-0.242,0.404-0.345,0.643-0.232c0.242,0.113,0.346,0.401,0.232,0.643
					c-0.275,0.586-0.554,1.17-0.839,1.751C436.384,245.636,436.212,245.735,436.034,245.735z M438.839,239.577
					c-0.063,0-0.127-0.012-0.189-0.038c-0.246-0.104-0.361-0.388-0.257-0.634c0.25-0.591,0.496-1.184,0.736-1.78
					c0.099-0.248,0.385-0.367,0.629-0.268c0.247,0.1,0.368,0.382,0.268,0.629c-0.242,0.601-0.489,1.2-0.741,1.796
					C439.206,239.466,439.027,239.577,438.839,239.577z M441.298,233.272c-0.054,0-0.109-0.009-0.162-0.028
					c-0.252-0.09-0.382-0.366-0.293-0.618c0.216-0.604,0.428-1.21,0.633-1.818c0.085-0.253,0.357-0.388,0.613-0.304
					c0.253,0.085,0.389,0.359,0.303,0.612c-0.207,0.613-0.42,1.225-0.638,1.835C441.682,233.148,441.496,233.272,441.298,233.272z
					 M443.391,226.835c-0.044,0-0.091-0.006-0.136-0.019c-0.256-0.075-0.403-0.344-0.328-0.6c0.18-0.616,0.355-1.234,0.525-1.853
					c0.072-0.257,0.333-0.408,0.595-0.338c0.257,0.071,0.409,0.337,0.338,0.594c-0.172,0.624-0.348,1.247-0.531,1.868
					C443.793,226.698,443.6,226.835,443.391,226.835z M445.096,220.286c-0.035,0-0.072-0.004-0.108-0.012
					c-0.261-0.059-0.423-0.318-0.364-0.579c0.143-0.626,0.28-1.253,0.412-1.881c0.055-0.262,0.314-0.428,0.572-0.374
					c0.262,0.055,0.429,0.311,0.374,0.572c-0.133,0.634-0.271,1.266-0.415,1.898C445.516,220.134,445.317,220.286,445.096,220.286z
					 M446.395,213.642c-0.026,0-0.052-0.002-0.078-0.006c-0.263-0.043-0.443-0.291-0.399-0.554c0.102-0.634,0.199-1.268,0.29-1.904
					c0.038-0.265,0.286-0.448,0.548-0.41c0.264,0.038,0.448,0.283,0.41,0.547c-0.093,0.641-0.19,1.281-0.294,1.921
					C446.833,213.473,446.627,213.642,446.395,213.642z M447.258,206.93c-0.015,0-0.031-0.001-0.046-0.002
					c-0.266-0.025-0.461-0.261-0.436-0.527c0.06-0.639,0.115-1.279,0.162-1.918c0.021-0.267,0.253-0.47,0.518-0.446
					c0.266,0.02,0.466,0.252,0.447,0.518c-0.049,0.646-0.104,1.292-0.164,1.937C447.716,206.742,447.505,206.93,447.258,206.93z
					 M447.66,200.174c-0.004,0-0.008,0-0.011,0c-0.267-0.007-0.478-0.228-0.472-0.495c0.015-0.642,0.024-1.283,0.026-1.925
					c0.001-0.266,0.217-0.481,0.483-0.481c0.001,0,0.001,0,0.002,0c0.267,0.001,0.482,0.219,0.482,0.486
					c-0.003,0.648-0.011,1.295-0.027,1.943C448.137,199.965,447.921,200.174,447.66,200.174z M447.576,193.408
					c-0.256,0-0.47-0.201-0.482-0.459c-0.032-0.641-0.071-1.281-0.116-1.921c-0.019-0.266,0.182-0.498,0.449-0.516
					c0.245-0.026,0.498,0.18,0.517,0.448c0.045,0.646,0.084,1.293,0.116,1.94c0.013,0.267-0.192,0.494-0.459,0.507
					C447.592,193.408,447.583,193.408,447.576,193.408z M446.981,186.666c-0.24,0-0.448-0.178-0.479-0.423
					c-0.08-0.636-0.169-1.27-0.264-1.904c-0.04-0.264,0.142-0.51,0.406-0.551c0.255-0.034,0.51,0.142,0.55,0.406
					c0.097,0.642,0.186,1.284,0.268,1.927c0.034,0.265-0.154,0.507-0.418,0.541C447.022,186.665,447.002,186.666,446.981,186.666z
					 M445.856,179.994c-0.223,0-0.424-0.156-0.472-0.383c-0.132-0.626-0.273-1.252-0.42-1.875c-0.061-0.26,0.099-0.52,0.359-0.582
					c0.261-0.059,0.521,0.099,0.582,0.359c0.149,0.631,0.292,1.263,0.426,1.898c0.055,0.262-0.112,0.518-0.373,0.573
					C445.923,179.991,445.89,179.994,445.856,179.994z M444.17,173.442c-0.208,0-0.398-0.134-0.463-0.343
					c-0.187-0.613-0.381-1.223-0.582-1.832c-0.084-0.254,0.054-0.527,0.307-0.61c0.256-0.086,0.528,0.053,0.611,0.307
					c0.203,0.615,0.4,1.233,0.589,1.853c0.078,0.256-0.066,0.526-0.322,0.604C444.264,173.436,444.216,173.442,444.17,173.442z
					 M441.923,167.06c-0.192,0-0.373-0.115-0.448-0.304c-0.239-0.594-0.484-1.186-0.738-1.776c-0.105-0.245,0.009-0.529,0.254-0.634
					c0.244-0.105,0.529,0.007,0.635,0.254c0.255,0.596,0.504,1.195,0.745,1.796c0.099,0.248-0.021,0.529-0.268,0.628
					C442.044,167.049,441.984,167.06,441.923,167.06z M439.137,160.893c-0.177,0-0.346-0.097-0.432-0.265
					c-0.289-0.572-0.585-1.14-0.889-1.705c-0.126-0.235-0.039-0.528,0.196-0.655c0.237-0.126,0.528-0.039,0.655,0.197
					c0.308,0.572,0.607,1.147,0.9,1.727c0.12,0.238,0.025,0.529-0.214,0.65C439.285,160.876,439.21,160.893,439.137,160.893z
					 M435.824,154.991c-0.162,0-0.319-0.081-0.411-0.229c-0.338-0.545-0.683-1.085-1.035-1.62c-0.146-0.223-0.084-0.523,0.139-0.669
					c0.223-0.146,0.523-0.085,0.669,0.139c0.356,0.543,0.706,1.09,1.048,1.641c0.141,0.227,0.071,0.525-0.156,0.666
					C436,154.968,435.912,154.991,435.824,154.991z M432,149.407c-0.146,0-0.291-0.067-0.386-0.193
					c-0.385-0.511-0.777-1.018-1.177-1.519c-0.167-0.209-0.132-0.513,0.076-0.68c0.209-0.165,0.513-0.132,0.679,0.077
					c0.405,0.508,0.803,1.021,1.194,1.54c0.161,0.213,0.118,0.517-0.095,0.677C432.204,149.375,432.102,149.407,432,149.407z
					 M427.678,144.199c-0.131,0-0.262-0.053-0.357-0.157c-0.432-0.473-0.871-0.941-1.315-1.401c-0.185-0.192-0.18-0.498,0.013-0.684
					c0.192-0.185,0.498-0.179,0.684,0.012c0.451,0.467,0.894,0.941,1.332,1.42c0.18,0.197,0.166,0.503-0.031,0.683
					C427.912,144.157,427.795,144.199,427.678,144.199z M422.877,139.431c-0.115,0-0.23-0.041-0.323-0.124
					c-0.477-0.428-0.959-0.849-1.446-1.263c-0.204-0.173-0.229-0.478-0.056-0.682c0.173-0.203,0.479-0.227,0.681-0.056
					c0.495,0.42,0.984,0.847,1.466,1.281c0.199,0.178,0.215,0.484,0.037,0.683C423.141,139.376,423.009,139.431,422.877,139.431z
					 M417.621,135.172c-0.099,0-0.198-0.03-0.284-0.093c-0.517-0.376-1.041-0.744-1.568-1.105c-0.22-0.151-0.277-0.451-0.127-0.672
					c0.151-0.221,0.451-0.275,0.672-0.127c0.535,0.366,1.066,0.74,1.591,1.122c0.216,0.157,0.263,0.459,0.107,0.675
					C417.917,135.103,417.77,135.172,417.621,135.172z M411.947,131.493c-0.082,0-0.164-0.021-0.241-0.064
					c-0.553-0.318-1.113-0.626-1.677-0.927c-0.235-0.126-0.325-0.419-0.199-0.654c0.127-0.235,0.42-0.322,0.654-0.199
					c0.573,0.305,1.141,0.619,1.703,0.942c0.231,0.133,0.312,0.428,0.178,0.66C412.277,131.406,412.114,131.493,411.947,131.493z
					 M405.9,128.46c-0.065,0-0.13-0.013-0.194-0.04c-0.587-0.256-1.179-0.504-1.772-0.743c-0.247-0.1-0.368-0.381-0.268-0.629
					c0.099-0.248,0.38-0.367,0.629-0.268c0.603,0.242,1.201,0.493,1.798,0.753c0.245,0.107,0.356,0.392,0.249,0.636
					C406.264,128.352,406.086,128.46,405.9,128.46z M399.574,126.058c-0.05,0-0.101-0.008-0.151-0.024
					c-0.608-0.2-1.219-0.392-1.833-0.578c-0.256-0.077-0.4-0.347-0.323-0.603c0.077-0.255,0.348-0.398,0.603-0.322
					c0.621,0.188,1.24,0.383,1.855,0.585c0.254,0.083,0.392,0.357,0.308,0.61C399.967,125.929,399.777,126.058,399.574,126.058z
					 M393.07,124.201c-0.038,0-0.077-0.005-0.116-0.014c-0.622-0.154-1.246-0.302-1.872-0.445c-0.261-0.059-0.423-0.319-0.364-0.579
					c0.059-0.259,0.315-0.424,0.579-0.363c0.632,0.145,1.262,0.294,1.889,0.449c0.259,0.064,0.417,0.326,0.353,0.585
					C393.484,124.053,393.287,124.201,393.07,124.201z M386.458,122.77c-0.03,0-0.06-0.003-0.091-0.008
					c-0.631-0.119-1.263-0.234-1.895-0.346c-0.263-0.046-0.438-0.297-0.392-0.56c0.047-0.263,0.304-0.438,0.56-0.392
					c0.637,0.112,1.272,0.228,1.907,0.348c0.263,0.049,0.435,0.302,0.385,0.565C386.889,122.608,386.686,122.77,386.458,122.77z
					 M379.786,121.643c-0.025,0-0.049-0.002-0.074-0.006c-0.636-0.096-1.272-0.191-1.909-0.283c-0.264-0.038-0.448-0.283-0.41-0.548
					c0.039-0.265,0.298-0.451,0.548-0.409c0.64,0.093,1.279,0.187,1.916,0.284c0.264,0.04,0.446,0.287,0.405,0.55
					C380.227,121.472,380.02,121.643,379.786,121.643z M373.085,120.695c-0.022,0-0.044-0.001-0.065-0.004l-1.916-0.255
					c-0.264-0.035-0.451-0.278-0.416-0.542c0.035-0.265,0.283-0.454,0.543-0.416l1.918,0.255c0.264,0.035,0.451,0.279,0.415,0.544
					C373.531,120.519,373.323,120.695,373.085,120.695z M366.375,119.805c-0.022,0-0.043-0.001-0.065-0.004l-1.918-0.26
					c-0.265-0.036-0.451-0.28-0.414-0.545c0.036-0.264,0.283-0.446,0.544-0.414l1.916,0.26c0.264,0.035,0.45,0.279,0.414,0.544
					C366.82,119.629,366.613,119.805,366.375,119.805z M359.671,118.854c-0.025,0-0.049-0.002-0.074-0.006
					c-0.64-0.098-1.279-0.198-1.916-0.301c-0.264-0.043-0.443-0.29-0.4-0.554c0.042-0.263,0.295-0.445,0.553-0.4
					c0.635,0.103,1.272,0.202,1.908,0.3c0.264,0.04,0.446,0.287,0.405,0.551C360.111,118.682,359.905,118.854,359.671,118.854z"/>
				<path style="opacity:0.6;fill:#FFFFFF;" d="M436.034,245.735c-0.072,0-0.145-0.016-0.212-0.049
					c-0.24-0.118-0.339-0.407-0.222-0.647c0.282-0.576,0.56-1.155,0.832-1.737c0.115-0.242,0.404-0.345,0.643-0.232
					c0.242,0.113,0.346,0.401,0.232,0.643c-0.275,0.586-0.554,1.17-0.839,1.751C436.384,245.636,436.212,245.735,436.034,245.735z
					 M438.839,239.577c-0.063,0-0.127-0.012-0.189-0.038c-0.246-0.104-0.361-0.388-0.257-0.634c0.25-0.591,0.496-1.184,0.736-1.78
					c0.099-0.248,0.385-0.367,0.629-0.268c0.247,0.1,0.368,0.382,0.268,0.629c-0.242,0.601-0.489,1.2-0.741,1.796
					C439.206,239.466,439.027,239.577,438.839,239.577z M441.298,233.272c-0.054,0-0.109-0.009-0.162-0.028
					c-0.252-0.09-0.382-0.366-0.293-0.618c0.216-0.604,0.428-1.21,0.633-1.818c0.085-0.253,0.357-0.388,0.613-0.304
					c0.253,0.085,0.389,0.359,0.303,0.612c-0.207,0.613-0.42,1.225-0.638,1.835C441.682,233.148,441.496,233.272,441.298,233.272z
					 M443.391,226.835c-0.044,0-0.091-0.006-0.136-0.019c-0.256-0.075-0.403-0.344-0.328-0.6c0.18-0.616,0.355-1.234,0.525-1.853
					c0.072-0.257,0.333-0.408,0.595-0.338c0.257,0.071,0.409,0.337,0.338,0.594c-0.172,0.624-0.348,1.247-0.531,1.868
					C443.793,226.698,443.6,226.835,443.391,226.835z M445.096,220.286c-0.035,0-0.072-0.004-0.108-0.012
					c-0.261-0.059-0.423-0.318-0.364-0.579c0.143-0.626,0.28-1.253,0.412-1.881c0.055-0.262,0.314-0.428,0.572-0.374
					c0.262,0.055,0.429,0.311,0.374,0.572c-0.133,0.634-0.271,1.266-0.415,1.898C445.516,220.134,445.317,220.286,445.096,220.286z
					 M446.395,213.642c-0.026,0-0.052-0.002-0.078-0.006c-0.263-0.043-0.443-0.291-0.399-0.554c0.102-0.634,0.199-1.268,0.29-1.904
					c0.038-0.265,0.286-0.448,0.548-0.41c0.264,0.038,0.448,0.283,0.41,0.547c-0.093,0.641-0.19,1.281-0.294,1.921
					C446.833,213.473,446.627,213.642,446.395,213.642z M447.258,206.93c-0.015,0-0.031-0.001-0.046-0.002
					c-0.266-0.025-0.461-0.261-0.436-0.527c0.06-0.639,0.115-1.279,0.162-1.918c0.021-0.267,0.253-0.47,0.518-0.446
					c0.266,0.02,0.466,0.252,0.447,0.518c-0.049,0.646-0.104,1.292-0.164,1.937C447.716,206.742,447.505,206.93,447.258,206.93z
					 M447.66,200.174c-0.004,0-0.008,0-0.011,0c-0.267-0.007-0.478-0.228-0.472-0.495c0.015-0.642,0.024-1.283,0.026-1.925
					c0.001-0.266,0.217-0.481,0.483-0.481c0.001,0,0.001,0,0.002,0c0.267,0.001,0.482,0.219,0.482,0.486
					c-0.003,0.648-0.011,1.295-0.027,1.943C448.137,199.965,447.921,200.174,447.66,200.174z M447.576,193.408
					c-0.256,0-0.47-0.201-0.482-0.459c-0.032-0.641-0.071-1.281-0.116-1.921c-0.019-0.266,0.182-0.498,0.449-0.516
					c0.245-0.026,0.498,0.18,0.517,0.448c0.045,0.646,0.084,1.293,0.116,1.94c0.013,0.267-0.192,0.494-0.459,0.507
					C447.592,193.408,447.583,193.408,447.576,193.408z M446.981,186.666c-0.24,0-0.448-0.178-0.479-0.423
					c-0.08-0.636-0.169-1.27-0.264-1.904c-0.04-0.264,0.142-0.51,0.406-0.551c0.255-0.034,0.51,0.142,0.55,0.406
					c0.097,0.642,0.186,1.284,0.268,1.927c0.034,0.265-0.154,0.507-0.418,0.541C447.022,186.665,447.002,186.666,446.981,186.666z
					 M445.856,179.994c-0.223,0-0.424-0.156-0.472-0.383c-0.132-0.626-0.273-1.252-0.42-1.875c-0.061-0.26,0.099-0.52,0.359-0.582
					c0.261-0.059,0.521,0.099,0.582,0.359c0.149,0.631,0.292,1.263,0.426,1.898c0.055,0.262-0.112,0.518-0.373,0.573
					C445.923,179.991,445.89,179.994,445.856,179.994z M444.17,173.442c-0.208,0-0.398-0.134-0.463-0.343
					c-0.187-0.613-0.381-1.223-0.582-1.832c-0.084-0.254,0.054-0.527,0.307-0.61c0.256-0.086,0.528,0.053,0.611,0.307
					c0.203,0.615,0.4,1.233,0.589,1.853c0.078,0.256-0.066,0.526-0.322,0.604C444.264,173.436,444.216,173.442,444.17,173.442z
					 M441.923,167.06c-0.192,0-0.373-0.115-0.448-0.304c-0.239-0.594-0.484-1.186-0.738-1.776c-0.105-0.245,0.009-0.529,0.254-0.634
					c0.244-0.105,0.529,0.007,0.635,0.254c0.255,0.596,0.504,1.195,0.745,1.796c0.099,0.248-0.021,0.529-0.268,0.628
					C442.044,167.049,441.984,167.06,441.923,167.06z M439.137,160.893c-0.177,0-0.346-0.097-0.432-0.265
					c-0.289-0.572-0.585-1.14-0.889-1.705c-0.126-0.235-0.039-0.528,0.196-0.655c0.237-0.126,0.528-0.039,0.655,0.197
					c0.308,0.572,0.607,1.147,0.9,1.727c0.12,0.238,0.025,0.529-0.214,0.65C439.285,160.876,439.21,160.893,439.137,160.893z
					 M435.824,154.991c-0.162,0-0.319-0.081-0.411-0.229c-0.338-0.545-0.683-1.085-1.035-1.62c-0.146-0.223-0.084-0.523,0.139-0.669
					c0.223-0.146,0.523-0.085,0.669,0.139c0.356,0.543,0.706,1.09,1.048,1.641c0.141,0.227,0.071,0.525-0.156,0.666
					C436,154.968,435.912,154.991,435.824,154.991z M432,149.407c-0.146,0-0.291-0.067-0.386-0.193
					c-0.385-0.511-0.777-1.018-1.177-1.519c-0.167-0.209-0.132-0.513,0.076-0.68c0.209-0.165,0.513-0.132,0.679,0.077
					c0.405,0.508,0.803,1.021,1.194,1.54c0.161,0.213,0.118,0.517-0.095,0.677C432.204,149.375,432.102,149.407,432,149.407z
					 M427.678,144.199c-0.131,0-0.262-0.053-0.357-0.157c-0.432-0.473-0.871-0.941-1.315-1.401c-0.185-0.192-0.18-0.498,0.013-0.684
					c0.192-0.185,0.498-0.179,0.684,0.012c0.451,0.467,0.894,0.941,1.332,1.42c0.18,0.197,0.166,0.503-0.031,0.683
					C427.912,144.157,427.795,144.199,427.678,144.199z M422.877,139.431c-0.115,0-0.23-0.041-0.323-0.124
					c-0.477-0.428-0.959-0.849-1.446-1.263c-0.204-0.173-0.229-0.478-0.056-0.682c0.173-0.203,0.479-0.227,0.681-0.056
					c0.495,0.42,0.984,0.847,1.466,1.281c0.199,0.178,0.215,0.484,0.037,0.683C423.141,139.376,423.009,139.431,422.877,139.431z
					 M417.621,135.172c-0.099,0-0.198-0.03-0.284-0.093c-0.517-0.376-1.041-0.744-1.568-1.105c-0.22-0.151-0.277-0.451-0.127-0.672
					c0.151-0.221,0.451-0.275,0.672-0.127c0.535,0.366,1.066,0.74,1.591,1.122c0.216,0.157,0.263,0.459,0.107,0.675
					C417.917,135.103,417.77,135.172,417.621,135.172z M411.947,131.493c-0.082,0-0.164-0.021-0.241-0.064
					c-0.553-0.318-1.113-0.626-1.677-0.927c-0.235-0.126-0.325-0.419-0.199-0.654c0.127-0.235,0.42-0.322,0.654-0.199
					c0.573,0.305,1.141,0.619,1.703,0.942c0.231,0.133,0.312,0.428,0.178,0.66C412.277,131.406,412.114,131.493,411.947,131.493z
					 M405.9,128.46c-0.065,0-0.13-0.013-0.194-0.04c-0.587-0.256-1.179-0.504-1.772-0.743c-0.247-0.1-0.368-0.381-0.268-0.629
					c0.099-0.248,0.38-0.367,0.629-0.268c0.603,0.242,1.201,0.493,1.798,0.753c0.245,0.107,0.356,0.392,0.249,0.636
					C406.264,128.352,406.086,128.46,405.9,128.46z M399.574,126.058c-0.05,0-0.101-0.008-0.151-0.024
					c-0.608-0.2-1.219-0.392-1.833-0.578c-0.256-0.077-0.4-0.347-0.323-0.603c0.077-0.255,0.348-0.398,0.603-0.322
					c0.621,0.188,1.24,0.383,1.855,0.585c0.254,0.083,0.392,0.357,0.308,0.61C399.967,125.929,399.777,126.058,399.574,126.058z
					 M393.07,124.201c-0.038,0-0.077-0.005-0.116-0.014c-0.622-0.154-1.246-0.302-1.872-0.445c-0.261-0.059-0.423-0.319-0.364-0.579
					c0.059-0.259,0.315-0.424,0.579-0.363c0.632,0.145,1.262,0.294,1.889,0.449c0.259,0.064,0.417,0.326,0.353,0.585
					C393.484,124.053,393.287,124.201,393.07,124.201z M386.458,122.77c-0.03,0-0.06-0.003-0.091-0.008
					c-0.631-0.119-1.263-0.234-1.895-0.346c-0.263-0.046-0.438-0.297-0.392-0.56c0.047-0.263,0.304-0.438,0.56-0.392
					c0.637,0.112,1.272,0.228,1.907,0.348c0.263,0.049,0.435,0.302,0.385,0.565C386.889,122.608,386.686,122.77,386.458,122.77z
					 M379.786,121.643c-0.025,0-0.049-0.002-0.074-0.006c-0.636-0.096-1.272-0.191-1.909-0.283c-0.264-0.038-0.448-0.283-0.41-0.548
					c0.039-0.265,0.298-0.451,0.548-0.409c0.64,0.093,1.279,0.187,1.916,0.284c0.264,0.04,0.446,0.287,0.405,0.55
					C380.227,121.472,380.02,121.643,379.786,121.643z M373.085,120.695c-0.022,0-0.044-0.001-0.065-0.004l-1.916-0.255
					c-0.264-0.035-0.451-0.278-0.416-0.542c0.035-0.265,0.283-0.454,0.543-0.416l1.918,0.255c0.264,0.035,0.451,0.279,0.415,0.544
					C373.531,120.519,373.323,120.695,373.085,120.695z M366.375,119.805c-0.022,0-0.043-0.001-0.065-0.004l-1.918-0.26
					c-0.265-0.036-0.451-0.28-0.414-0.545c0.036-0.264,0.283-0.446,0.544-0.414l1.916,0.26c0.264,0.035,0.45,0.279,0.414,0.544
					C366.82,119.629,366.613,119.805,366.375,119.805z M359.671,118.854c-0.025,0-0.049-0.002-0.074-0.006
					c-0.64-0.098-1.279-0.198-1.916-0.301c-0.264-0.043-0.443-0.29-0.4-0.554c0.042-0.263,0.295-0.445,0.553-0.4
					c0.635,0.103,1.272,0.202,1.908,0.3c0.264,0.04,0.446,0.287,0.405,0.551C360.111,118.682,359.905,118.854,359.671,118.854z"/>
			</g>
		</g>
	</g>
</g>
<g id="Window_1_">
	<g>
		
			<rect x="53.492" y="172.883" style="fill:#FFFFFF;stroke:#263238;stroke-miterlimit:10;enable-background:new    ;" width="159.289" height="100.857"/>
		<path style="fill:#11998E;stroke:#263238;stroke-linecap:round;stroke-linejoin:round;stroke-miterlimit:10;" d="M103.392,161.169
			l-3.088-8.843H50.391v128.766h165.477V161.169H103.392z M212.78,273.753H53.492V172.883H212.78V273.753z"/>
		<polyline style="fill:#11998E;stroke:#263238;stroke-linecap:round;stroke-linejoin:round;stroke-miterlimit:10;" points="
			57.324,163.729 55.036,165.922 57.405,168.468 		"/>
		
			<line style="fill:#11998E;stroke:#263238;stroke-linecap:round;stroke-linejoin:round;stroke-miterlimit:10;" x1="55.036" y1="165.922" x2="60.114" y2="165.922"/>
		<polyline style="fill:#11998E;stroke:#263238;stroke-linecap:round;stroke-linejoin:round;stroke-miterlimit:10;" points="
			70.256,163.729 72.545,165.922 70.175,168.468 		"/>
		
			<line style="fill:#11998E;stroke:#263238;stroke-linecap:round;stroke-linejoin:round;stroke-miterlimit:10;" x1="72.545" y1="165.922" x2="67.467" y2="165.922"/>
		<path style="fill:#11998E;stroke:#263238;stroke-linecap:round;stroke-linejoin:round;stroke-miterlimit:10;" d="M83.446,165.611
			c-0.302-1.049-1.252-1.778-2.343-1.801c-1.264,0.002-2.287,1.028-2.285,2.292c0.002,1.264,1.028,2.287,2.292,2.285
			c0.526-0.001,1.035-0.182,1.443-0.514"/>
		<polyline style="fill:#11998E;stroke:#263238;stroke-linecap:round;stroke-linejoin:round;stroke-miterlimit:10;" points="
			81.902,165.882 83.689,165.882 83.689,163.783 		"/>
		
			<line style="fill:#11998E;stroke:#263238;stroke-linecap:round;stroke-linejoin:round;stroke-miterlimit:10;" x1="94.78" y1="156.904" x2="97.989" y2="160.208"/>
		
			<line style="fill:#11998E;stroke:#263238;stroke-linecap:round;stroke-linejoin:round;stroke-miterlimit:10;" x1="98.043" y1="156.958" x2="94.726" y2="160.154"/>
	</g>
</g>
<g id="Email_1_">
	<g id="Email">
		<g>
			<polygon style="fill:#FFFFFF;" points="174.783,345.117 150.223,297.192 79.202,335.712 103.878,380.957 			"/>
			<g>
				<polygon style="fill:#11998E;" points="145.001,310.147 130.784,345.689 79.491,335.872 127.117,340.335 143.106,309.673 				
					"/>
				<polygon style="opacity:0.5;fill:#FFFFFF;" points="145.001,310.147 130.784,345.689 79.491,335.872 127.117,340.335 
					143.106,309.673 				"/>
			</g>
			<polygon style="fill:none;stroke:#263238;stroke-linecap:round;stroke-linejoin:round;stroke-miterlimit:10;" points="
				79.451,335.552 103.878,380.957 174.783,345.117 149.918,297.497 			"/>
			<polyline style="fill:none;stroke:#263238;stroke-linecap:round;stroke-linejoin:round;stroke-miterlimit:10;" points="
				79.451,335.552 127.117,340.335 149.918,297.497 			"/>
			
				<ellipse transform="matrix(0.7071 -0.7071 0.7071 0.7071 -168.5678 191.9553)" style="fill:#11998E;" cx="147.427" cy="299.457" rx="10.479" ry="10.479"/>
			
				<ellipse transform="matrix(0.7071 -0.7071 0.7071 0.7071 -168.5678 191.9553)" style="opacity:0.3;" cx="147.427" cy="299.457" rx="10.479" ry="10.479"/>
			
				<circle style="fill:none;stroke:#263238;stroke-linecap:round;stroke-linejoin:round;stroke-miterlimit:10;" cx="147.427" cy="299.78" r="10.479"/>
			<circle style="fill:#11998E;" cx="147.427" cy="296.855" r="10.479"/>
			
				<circle style="fill:none;stroke:#263238;stroke-linecap:round;stroke-linejoin:round;stroke-miterlimit:10;" cx="147.427" cy="296.855" r="10.479"/>
		</g>
		<g>
			<path style="fill:#FFFFFF;" d="M313.079,268.749h-50.172c-1.657,0-3-1.343-3-3V237.82c0-1.657,1.343-3,3-3h50.172
				c1.657,0,3,1.343,3,3v27.929C316.079,267.405,314.736,268.749,313.079,268.749z"/>
			<path style="fill:none;stroke:#263238;stroke-linecap:round;stroke-linejoin:round;stroke-miterlimit:10;" d="M313.079,268.749
				h-50.172c-1.657,0-3-1.343-3-3V237.82c0-1.657,1.343-3,3-3h50.172c1.657,0,3,1.343,3,3v27.929
				C316.079,267.405,314.736,268.749,313.079,268.749z"/>
			<g>
				<rect x="263.609" y="239.975" style="fill:#11998E;" width="49.027" height="2.293"/>
				<rect x="263.609" y="245.266" style="fill:#11998E;" width="49.027" height="2.293"/>
				<rect x="263.609" y="250.556" style="fill:#11998E;" width="49.027" height="2.293"/>
				<rect x="263.609" y="255.847" style="fill:#11998E;" width="49.027" height="2.293"/>
				<rect x="263.609" y="261.138" style="fill:#11998E;" width="49.027" height="2.293"/>
			</g>
		</g>
		<g>
			
				<path style="fill:none;stroke:#263238;stroke-linecap:round;stroke-linejoin:round;stroke-miterlimit:10;stroke-dasharray:2,5;" d="
				M256.832,262.392c-7.959,4.444-15.477,9.485-21.924,15.917c-14.982,14.945-22.387,35.591-33.045,53.849
				c-10.88,18.637-25.462,35.119-42.657,48.213c-17.725,13.498-38.73,23.52-60.985,25.123c-22.254,1.603-45.752-6.076-60.262-22.958
				c-14.51-16.882-18.089-43.297-5.834-61.867c10.097-15.302,30.115-23.384,48.061-19.404c7.019,1.556,13.552,4.733,20.009,7.883
				c3.324,1.621,6.647,3.242,9.97,4.863"/>
			
				<path style="fill:none;stroke:#263238;stroke-linecap:round;stroke-linejoin:round;stroke-miterlimit:10;stroke-dasharray:2,5;" d="
				M287.292,165.599c10.038-4.77,21.93-6.137,32.398-2.403c10.468,3.734,19.138,12.947,20.936,23.914
				c1.552,9.461-1.978,19.228-7.735,26.894c-4.301,5.728-9.753,10.442-15.565,14.673"/>
		</g>
	</g>
</g>
<g id="Character_1_1_">
	<g id="Character_1">
		<path style="fill:#FFFFFF;" d="M228.845,214.086l8.753-5.477l21.96-26.759l17.772,14.916l-22.761,25.671l-3.286-2.311
			l-18.628,3.911C232.654,224.038,230.783,216.709,228.845,214.086z"/>
		<path style="fill:#FFFFFF;" d="M99.785,208.624l-8.84,7.006l2.388,4.952c0,0,0.45,6.397,4.138,8.383s13.46-4.335,13.46-4.335
			s1.01-6.73-2.394-11.696L99.785,208.624z"/>
		<path style="fill:#FFFFFF;" d="M203.296,133.902c0,0-15.131,29.254-24.042,31.271l-3.531,1.177c0,0-3.186,10.081-14.034,11.765
			l1.425-8.403l-7.888,7.794c0,0-12.715-11.65-9.689-27.453l11.128,0.73l4.961-9.302c0,0-4.228-2.368-3.219-7.075
			c1.009-4.708,2.017-9.079,6.893-5.212c0,0,10.592,5.38,19.166-2.186c8.574-7.566,10.928-8.574,15.467-5.884
			C199.934,121.124,198.757,131.548,203.296,133.902z"/>
		<path style="fill:#11998E;" d="M155.226,177.506c0,0-11.72-7.751-9.851-26.909c0,0-14.354-3.069-34.905-1.472l-61.053,53.612
			c0,0,2.042,8.089,10.793,9.812c8.751,1.723,30.306,3.106,30.306,3.106l8.416-7.36l-19.098-7.864l29.669-17.602l0.019,29.453
			c0,0,3.338,9.894,1.409,12.349l-12.873,12.997c0,0,21.643,39.975,70.267,14.716l-5.174-27.732c0,0,8.12-2.12,3.412-6.55
			l7.841-12.843c0,0,8.265,29.882,15.636,37.566l41.824-18.412c0,0-1.11-7.173-3.352-10.056l-29.448,6.704
			c0,0,0.486-26.546-1.436-35.194c-1.922-8.649-5.644-17.214-13.661-23.053c0,0-5.324,3.744-7.887,2.463
			c0,0-4.626,12.919-14.391,12.879l1.554-9.037l-6.984,7.507L155.226,177.506"/>
		<g>
			<path style="fill:#11998E;" d="M199.721,122.474c-2.365,0-4.577,1.216-6.379,2.748s-3.293,3.391-5.004,5.023
				c-4.81,4.587-11.395,7.264-18.042,7.334c-0.502,4.043-2.109,7.943-4.601,11.165c-0.699,0.904-1.516,1.923-1.321,3.05
				c0.092,0.533,0.404,0.998,0.708,1.445c1.002,1.47,2.004,2.941,3.006,4.412c0.286,0.42,0.582,0.867,0.617,1.374
				c0.065,0.942-0.759,1.679-1.507,2.256c-2.135,1.646-4.27,3.293-6.405,4.939c0,0-4.346-10.666-4.13-15.436l4.961-9.302
				c0,0-9.412-11.024-1.979-14.826c7.432-3.803,12.099,1.037,12.099,1.037s17.803-8.642,23.161-8.469
				C200.266,119.395,199.721,122.474,199.721,122.474z"/>
			<path style="opacity:0.6;fill:#FFFFFF;" d="M199.721,122.474c-2.365,0-4.577,1.216-6.379,2.748s-3.293,3.391-5.004,5.023
				c-4.81,4.587-11.395,7.264-18.042,7.334c-0.502,4.043-2.109,7.943-4.601,11.165c-0.699,0.904-1.516,1.923-1.321,3.05
				c0.092,0.533,0.404,0.998,0.708,1.445c1.002,1.47,2.004,2.941,3.006,4.412c0.286,0.42,0.582,0.867,0.617,1.374
				c0.065,0.942-0.759,1.679-1.507,2.256c-2.135,1.646-4.27,3.293-6.405,4.939c0,0-4.346-10.666-4.13-15.436l4.961-9.302
				c0,0-9.412-11.024-1.979-14.826c7.432-3.803,12.099,1.037,12.099,1.037s17.803-8.642,23.161-8.469
				C200.266,119.395,199.721,122.474,199.721,122.474z"/>
		</g>
		<path style="fill:none;stroke:#263238;stroke-linecap:round;stroke-linejoin:round;stroke-miterlimit:10;" d="M203.201,131.94
			c0,0-9.924,24.809-23.214,33.137c0,0-0.886,0.886-3.721,0c-2.835-0.886-9.037-7.974-11.341-11.518
			c-1.081-1.663-1.459-4.144-1.557-6.31"/>
		<path style="fill:none;stroke:#263238;stroke-linecap:round;stroke-linejoin:round;stroke-miterlimit:10;" d="M178.746,150.014
			c0,0,1.24,3.544,4.962,4.253"/>
		<path style="fill:none;stroke:#263238;stroke-linecap:round;stroke-linejoin:round;stroke-miterlimit:10;" d="M191.994,134.613
			c-1.373-1.675-3.7-2.509-5.825-2.087"/>
		<path style="fill:none;stroke:#263238;stroke-linecap:round;stroke-linejoin:round;stroke-miterlimit:10;" d="M196.405,137.126
			c1.479-0.548,3.287-0.022,4.24,1.234"/>
		<path style="fill:none;stroke:#263238;stroke-linecap:round;stroke-linejoin:round;stroke-miterlimit:10;" d="M194.684,139.502
			c-1.096,1.087-1.976,2.418-2.393,3.904c-0.417,1.486-0.348,3.131,0.337,4.515c0.292,0.59,0.694,1.141,0.823,1.786
			c0.129,0.646-0.14,1.444-0.776,1.615c-0.287,0.077-0.592,0.013-0.881-0.06c-1.771-0.446-3.46-1.211-4.963-2.248"/>
		<path style="fill:none;stroke:#263238;stroke-linecap:round;stroke-linejoin:round;stroke-miterlimit:10;" d="M166.305,133.734
			c-0.22-0.986-0.516-1.956-0.885-2.897c-0.465-1.185-1.244-2.473-2.508-2.622c-0.453-0.053-0.915,0.055-1.33,0.245
			c-1.233,0.566-2.048,1.825-2.355,3.147s-0.168,2.707,0.083,4.04c0.213,1.134,0.507,2.252,0.877,3.345
			c0.312,0.919,0.703,1.857,1.439,2.49c0.887,0.763,2.229,0.949,3.29,0.456c1.061-0.493,1.785-1.637,1.774-2.807"/>
		<path style="fill:none;stroke:#263238;stroke-linecap:round;stroke-linejoin:round;stroke-miterlimit:10;" d="M161.002,141.103
			c-1.138,3.78-2.396,6.538-4.374,9.704"/>
		<path style="fill:none;stroke:#263238;stroke-linecap:round;stroke-linejoin:round;stroke-miterlimit:10;" d="M90.517,215.655
			l2.816,4.927c0,0,0.176,6.863,3.696,8.271c3.52,1.408,13.902-4.223,13.902-4.223c0.176-0.528,1.08-5.518-1.56-11.325
			c0,0-4.97-2.812-10.438-5.01"/>
		
			<line style="fill:none;stroke:#263238;stroke-linecap:round;stroke-linejoin:round;stroke-miterlimit:10;" x1="105.827" y1="226.742" x2="103.188" y2="216.535"/>
		
			<line style="fill:none;stroke:#263238;stroke-linecap:round;stroke-linejoin:round;stroke-miterlimit:10;" x1="101.02" y1="228.396" x2="97.732" y2="218.118"/>
		
			<line style="fill:none;stroke:#263238;stroke-linecap:round;stroke-linejoin:round;stroke-miterlimit:10;" x1="79.646" y1="200.286" x2="116.562" y2="178.875"/>
		<path style="fill:none;stroke:#263238;stroke-linecap:round;stroke-linejoin:round;stroke-miterlimit:10;" d="M109.929,182.827
			c3.521-0.127,5.753-0.267,9.274-0.394"/>
		
			<line style="fill:none;stroke:#263238;stroke-linecap:round;stroke-linejoin:round;stroke-miterlimit:10;" x1="109.685" y1="183.047" x2="109.685" y2="213.309"/>
		<path style="fill:none;stroke:#263238;stroke-linecap:round;stroke-linejoin:round;stroke-miterlimit:10;" d="M183.261,162.547
			c0,0,8.841,2.849,14.466,22.028c1.867,16.538,1.372,36.744,1.372,36.744"/>
		<path style="fill:none;stroke:#263238;stroke-linecap:round;stroke-linejoin:round;stroke-miterlimit:10;" d="M238.814,207.918
			c0,0,10.508,0.372,10.252,2.161c-0.255,1.789-8.982,3.463-8.982,3.463s0.07,0.147,0.132,0.419c0,0,2.116,3.908-0.958,5.716"/>
		<path style="fill:none;stroke:#263238;stroke-linecap:round;stroke-linejoin:round;stroke-miterlimit:10;" d="M238.403,207.868
			c-4.383,2.334-9.71,6.326-9.71,6.326l-30.406,7.768"/>
		<path style="fill:none;stroke:#263238;stroke-linecap:round;stroke-linejoin:round;stroke-miterlimit:10;" d="M140.215,224.035
			c0,0,8.984,3.594,20.843-3.234"/>
		<path style="fill:#263238;" d="M187.616,140.301c-0.462,1.292-1.345,2.157-1.971,1.933c-0.626-0.224-0.759-1.453-0.297-2.745
			c0.462-1.292,1.345-2.157,1.971-1.933C187.946,137.78,188.079,139.009,187.616,140.301z"/>
		<path style="fill:#263238;" d="M196.604,142.454c-0.463,1.292-1.345,2.157-1.972,1.933c-0.626-0.224-0.759-1.453-0.297-2.745
			c0.463-1.292,1.345-2.157,1.971-1.933C196.934,139.933,197.066,141.162,196.604,142.454z"/>
		<g>
			<path style="fill:none;stroke:#263238;stroke-linecap:round;stroke-linejoin:round;stroke-miterlimit:10;" d="M144.56,267.742
				c1.711-0.082,3.474-0.225,5.29-0.436"/>
			<path style="fill:none;stroke:#263238;stroke-linecap:round;stroke-linejoin:round;stroke-miterlimit:10;" d="M99.866,250.911
				c0,0,12.297,16.081,39.132,16.883"/>
		</g>
		<g>
			<polyline style="fill:none;stroke:#263238;stroke-linecap:round;stroke-linejoin:round;stroke-miterlimit:10;" points="
				243.524,213.156 254.568,222.438 277.329,196.767 259.769,181.607 237.537,208.098 			"/>
			<polyline style="fill:none;stroke:#263238;stroke-linecap:round;stroke-linejoin:round;stroke-miterlimit:10;" points="
				259.769,181.607 257.433,202.432 237.537,208.098 			"/>
		</g>
		<path style="fill:#263238;" d="M165.42,130.837c0,0,13.01,3.32,22.003-4.628c8.994-7.948,11.713-3.556,11.713-3.556
			s-2.301,7.739,2.928,11.294l12.608-11.546c0,0-6.752-7.278-15.118-6.023c0,0-6.294-13.471-16.93-14.376
			c-12.529-1.066-41.586,10.13-24.792,46.385l3.029-7.12c0,0-3.135-9.741,0.722-12.807
			C164.416,126.209,165.42,130.837,165.42,130.837z"/>
		<path style="fill:#263238;" d="M203.562,119.106c0.499,0.195,2.294-0.453,2.972-0.436c1.291,0.032,2.571,0.362,3.761,0.852
			c2.709,1.118,5.395,3.345,7.34,5.52c4.174,4.669,8.056,10.879,14.966,11.314c6.156,0.388,10.652-4.299,16.521-5.006
			c12.219-1.471,21.229,10.954,19.684,22.206c-3.475,25.307-41.912,40.671-70.713,35.389c-0.975-0.179-0.11-16.135-14.127-26.174
			c0,0,18.065-21.309,19.256-32.329C204.411,119.454,203.566,119.108,203.562,119.106z"/>
		<path style="fill:none;stroke:#263238;stroke-linecap:round;stroke-linejoin:round;stroke-miterlimit:10;" d="M199.336,117.048
			c0,0,1.227-8.238-7.712-15.599"/>
		<path style="fill:none;stroke:#263238;stroke-linecap:round;stroke-linejoin:round;stroke-miterlimit:10;" d="M156.665,150.783
			c0,0-0.206,6.167,6.578,18.295l-8.017,8.428c0,0-13.156-9.456-9.456-27.751L156.665,150.783z"/>
		<path style="fill:none;stroke:#263238;stroke-linecap:round;stroke-linejoin:round;stroke-miterlimit:10;" d="M176.265,165.077
			c-5.775,14.096-14.576,13.038-14.576,13.038l1.554-9.037c0,0,5.945-3.297,8.671-6.894c0.097-0.128-0.113,0.129-0.045,0.055"/>
		
			<line style="fill:none;stroke:#263238;stroke-linecap:round;stroke-linejoin:round;stroke-miterlimit:10;" x1="109.875" y1="225.51" x2="106.866" y2="214.975"/>
		<path style="fill:none;stroke:#263238;stroke-linecap:round;stroke-linejoin:round;stroke-miterlimit:10;" d="M182.719,191.037
			l-16.156,27.025c0,0,1.712,1.703,1.124,3.466c-0.587,1.763-4.624,3.123-4.624,3.123s5.248,27.622,5.262,27.694
			c0.324,1.707-14.326,6.156-15.768,6.547c-11.732,3.183-24.049,2.869-34.987-3.064c-7.768-4.213-14.773-10.711-19.512-18.2
			l11.817-12.117"/>
		<path style="fill:none;stroke:#263238;stroke-linecap:round;stroke-linejoin:round;stroke-miterlimit:10;" d="M174.541,205.094
			c0,0,2.536,15.216,15.499,37.69l42.043-18.611l18.735-4.271"/>
		<path style="fill:none;stroke:#263238;stroke-linecap:round;stroke-linejoin:round;stroke-miterlimit:10;" d="M199.345,221.308
			c-4.224,1.726-7.275,6.014-7.521,10.57"/>
		<path style="fill:none;stroke:#263238;stroke-linecap:round;stroke-linejoin:round;stroke-miterlimit:10;" d="M189.054,224.89
			c2.053-1.583,4.335-2.867,6.752-3.802"/>
		<path style="fill:none;stroke:#263238;stroke-linecap:round;stroke-linejoin:round;stroke-miterlimit:10;" d="M232.083,224.173
			c0.691-2.074-3.391-9.979-3.391-9.979"/>
		<path style="fill:none;stroke:#263238;stroke-linecap:round;stroke-linejoin:round;stroke-miterlimit:10;" d="M145.789,150.284
			c-11.801-1.272-30.961-3.006-34.682-1.326c-5.455,2.464-41.12,35.663-41.12,35.663l-20.569,18.115
			c0.327,6.541,10.793,9.812,10.793,9.812l30.306,3.106l9.268-7.031c0,0-26.165-11.447-35.977-12.428"/>
		<path style="fill:none;stroke:#263238;stroke-linecap:round;stroke-linejoin:round;stroke-miterlimit:10;" d="M69.759,191.96
			c0,0,8.586,2.602,9.887,8.326"/>
		<path style="fill:none;stroke:#FFFFFF;stroke-width:0.5;stroke-linecap:round;stroke-linejoin:round;stroke-miterlimit:10;" d="
			M199.279,142.626c2.464,3.933,5.181,7.857,9.005,10.487c4.614,3.172,10.505,4.154,16.061,3.455
			c5.555-0.699,10.813-2.968,15.629-5.823c3.254-1.929,6.386-4.154,9.964-5.378c3.579-1.225,7.811-1.295,10.878,0.919"/>
		<path style="fill:none;stroke:#FFFFFF;stroke-width:0.5;stroke-linecap:round;stroke-linejoin:round;stroke-miterlimit:10;" d="
			M193.195,153.178c0.162,5.69,0.647,11.662,3.757,16.43c2.836,4.348,7.596,7.179,12.6,8.562c5.515,1.525,11.468,1.43,16.932-0.271
			c4.518-1.406,8.628-3.852,12.924-5.833s8.997-3.531,13.693-2.958"/>
	</g>
</g>
<g id="Character_2_1_">
	<g id="Character_2">
		<polygon style="fill:#FFFFFF;" points="257.029,319.291 257.849,310.335 265.321,306.282 254.009,285.268 222.133,301.91 
			233.281,322.825 240.17,319.422 253.741,326.539 		"/>
		<path style="fill:#FFFFFF;" d="M360.51,223.802c0,0-10.353,24.157-11.294,32.314c-0.941,8.157-0.471,12.235,3.451,15.059
			c3.922,2.824,11.057,2.964,11.057,2.964l-0.682,4.302c0,0-2.845-0.207-5.042,3.087c-2.196,3.294-2.162,5.451-2.162,5.451
			s2.746,10.81,4.964,10.993c2.218,0.184,4.574-7.396,4.574-7.396s1.975,10.822,3.888,10.456
			c1.913-0.366,19.482-12.131,19.482-12.131s1.574-8.161-2.272-12.394c0,0-1.022-8.09,0.076-11.855c0,0,7.59,0.958,8-6.81
			c0.365-6.921-3.294-9.882-5.49-7.059l-5.177-13.02l2.039-9.255L360.51,223.802z"/>
		<g>
			<path style="fill:#11998E;" d="M364.238,226.221l0.803,1.404c0,0-12.639,20.865-12.037,34.507
				c0.602,13.642,20.062,10.031,20.062,10.031s-1.204,17.053-8.426,16.05L362.834,284l0.517-9.519c0,0-7.539,0.692-12.154-3.922
				c-4.614-4.614-2.408-14.445,1.806-27.887c4.213-13.442,7.506-18.87,7.506-18.87L364.238,226.221z"/>
			<path style="opacity:0.6;fill:#FFFFFF;" d="M364.238,226.221l0.803,1.404c0,0-12.639,20.865-12.037,34.507
				c0.602,13.642,20.062,10.031,20.062,10.031s-1.204,17.053-8.426,16.05L362.834,284l0.517-9.519c0,0-7.539,0.692-12.154-3.922
				c-4.614-4.614-2.408-14.445,1.806-27.887c4.213-13.442,7.506-18.87,7.506-18.87L364.238,226.221z"/>
		</g>
		<path style="fill:#11998E;" d="M425.36,322.31c-0.71,4.37-2.21,8.65-4.2,12.65c-2.15,4.32-4.88,8.31-7.83,11.7l1.75,16.48
			l4.19,24.55c-0.01,0.01-0.03,0.02-0.04,0.03c-0.06,0.04-0.13,0.09-0.19,0.14c-0.25,0.19-0.7,0.52-1.34,0.97h-62.06
			c-1.63-3.78-3.44-8.06-5.14-12.27c-3.1-7.69-5.84-15.13-6.46-18.86c-0.08-0.5-0.12-0.92-0.13-1.28l-10.53-10.52l-34.75,18.92
			l-44.8-37.91l0.07-0.13l4.55-9.1l0.02-0.05l44.56,21.27l9.23-12.76l0.13-0.42l0.01-0.05l2.64-8.64l0.03-0.09l1.65-5.4l2.11-6.91
			l13.19-6.29l0.04-0.02l23.78-11.34c0,0,0.01,0.04,0.03,0.12c0.12,0.41,0.49,1.74,1.02,3.35c0.12,0.39,0.24,0.78,0.38,1.17
			c0.09,0.29,0.19,0.58,0.3,0.86c0.5,1.37,1.05,2.74,1.6,3.77c0.1,0.19,0.21,0.37,0.31,0.53c0.16,0.26,0.32,0.49,0.47,0.67
			c0.01,0.02,0.03,0.03,0.04,0.05c0.28,0.32,0.56,0.49,0.81,0.47c1.12-0.09,2.47-2.53,3.42-4.58c0.02-0.06,0.05-0.13,0.08-0.19
			c0.54-1.21,0.94-2.25,1.05-2.54c0.02-0.05,0.03-0.08,0.03-0.08s0.01,0.04,0.02,0.12c0.15,0.95,1.27,7.5,2.88,9.65
			c0.05,0.07,0.11,0.14,0.16,0.21c0.26,0.29,0.54,0.46,0.82,0.47c0.01,0,0.01,0,0.02,0c0.78,0,3.23-1.49,6.16-3.47
			c0.01,0,0.02-0.01,0.03-0.02c5.41-3.66,12.42-9.01,13.45-9.79c0.09-0.08,0.13-0.11,0.13-0.11s0.41-1.72,0-5.76
			c0,0,0.06,0.02,0.17,0.06l28.95,11.19c0,0.01,0,0.01,0.01,0.01l0.84,0.32c0,0,4.21,5.16,6.39,17.9
			C426.03,314.99,425.97,318.68,425.36,322.31z"/>
		<polygon style="fill:#FFFFFF;" points="329.57,312.158 332.25,297.021 300.166,288.403 294.626,311.632 307.409,315.634 
			313.192,327.346 321.966,333.378 331.598,324.397 332.418,317.227 		"/>
		<path style="fill:none;stroke:#263238;stroke-linecap:round;stroke-linejoin:round;stroke-miterlimit:10;" d="M289.13,302.343"/>
		<g>
			<polyline style="fill:none;stroke:#263238;stroke-linecap:round;stroke-linejoin:round;stroke-miterlimit:10;" points="
				257.849,310.335 265.3,306.64 254.071,285.137 222.25,302.321 233.281,322.825 248.269,315.156 			"/>
			<polyline style="fill:none;stroke:#263238;stroke-linecap:round;stroke-linejoin:round;stroke-miterlimit:10;" points="
				222.25,302.321 243.775,304.481 254.071,285.137 			"/>
		</g>
		<g>
			<polyline style="fill:none;stroke:#263238;stroke-linecap:round;stroke-linejoin:round;stroke-miterlimit:10;" points="
				324.483,320.261 327.909,321.251 332.358,296.663 300.174,288.263 294.626,311.632 306.982,315.203 			"/>
			<polyline style="fill:none;stroke:#263238;stroke-linecap:round;stroke-linejoin:round;stroke-miterlimit:10;" points="
				300.342,288.263 313.119,304.235 332.358,296.663 			"/>
		</g>
		<path style="fill:none;stroke:#263238;stroke-linecap:round;stroke-linejoin:round;stroke-miterlimit:10;" d="M361.891,220.533
			c0,0-12.601,28.542-13.449,40.136c-0.843,11.525,9.969,13.31,10.098,13.33c4.283,0.693,8.895,0.421,12.913-1.307
			c3.229-1.389,5.809-3.96,8.498-6.166"/>
		<polyline style="fill:none;stroke:#263238;stroke-linecap:round;stroke-linejoin:round;stroke-miterlimit:10;" points="
			359.628,252.77 354.538,249.943 360.477,237.217 		"/>
		<path style="fill:#263238;" d="M365.964,242.802c-0.373,1.128-0.188,2.203,0.414,2.402c0.602,0.199,1.391-0.554,1.764-1.682
			c0.373-1.128,0.188-2.203-0.414-2.402C367.127,240.921,366.337,241.674,365.964,242.802z"/>
		<path style="fill:#263238;" d="M356.232,239.152c-0.373,1.128-0.188,2.203,0.414,2.402c0.601,0.199,1.391-0.554,1.764-1.682
			c0.373-1.128,0.188-2.203-0.414-2.402C357.395,237.272,356.605,238.025,356.232,239.152z"/>
		<path style="fill:none;stroke:#263238;stroke-linecap:round;stroke-linejoin:round;stroke-miterlimit:10;" d="M366.643,255.307
			c0,0-2.534,3.346-7.299,2.737"/>
		<path style="fill:none;stroke:#263238;stroke-width:2;stroke-linecap:round;stroke-linejoin:round;stroke-miterlimit:10;" d="
			M366.469,236.633c1.114-0.716,2.672-0.272,3.619,0.654c0.947,0.926,1.426,2.215,1.878,3.46"/>
		<path style="fill:none;stroke:#263238;stroke-width:2;stroke-linecap:round;stroke-linejoin:round;stroke-miterlimit:10;" d="
			M360.895,235.044c-0.278-0.81-1.05-1.428-1.901-1.522c-0.851-0.094-1.739,0.34-2.188,1.07"/>
		<path style="fill:none;stroke:#263238;stroke-linecap:round;stroke-linejoin:round;stroke-miterlimit:10;" d="M386.238,256.53
			c0,0,3.369-5.513,6.891-4.287c3.522,1.225,1.837,6.278,0.153,9.494c-1.684,3.216-5.972,3.369-8.422,1.991"/>
		<path style="fill:#263238;" d="M394.178,259.624c0,0,3.346-5.646-0.209-7.528c-3.555-1.882-7.931,4.488-7.932,4.489
			c-0.11,0.082-0.451,0.001-0.9-0.164c-1.729-0.634-2.54-2.585-1.837-4.287c0.146-0.354,0.273-0.704,0.381-1.033
			c0.468-1.424,0.642-3.028,0.359-4.51c-0.582-3.056-2.757-5.549-2.408-8.821c0.267-2.505,1.105-5.082,2.269-7.319
			c-18.185,3.637-29.096-6.668-26.671-15.154c2.425-8.486,8.183-0.909,20.913-5.759c12.729-4.849,21.864,15.83,21.864,15.83
			c12.73,8.79,0.565,21.146,0.565,21.146l-6.497,13.459L394.178,259.624z"/>
		<path style="fill:none;stroke:#263238;stroke-linecap:round;stroke-linejoin:round;stroke-miterlimit:10;" d="M413.29,346.2
			c0.47,16.05,5.98,41.49,5.98,41.49c-0.01,0.01-0.03,0.02-0.04,0.03c-0.06,0.04-0.13,0.09-0.19,0.14
			c-0.46,0.33-0.92,0.65-1.38,0.97"/>
		<path style="fill:none;stroke:#263238;stroke-linecap:round;stroke-linejoin:round;stroke-miterlimit:10;" d="M355.26,388.83
			c-1.62-3.82-3.2-7.94-4.76-12.27c-2.28-6.34-4.49-13.14-6.59-20.14"/>
		<path style="fill:none;stroke:#263238;stroke-linecap:round;stroke-linejoin:round;stroke-miterlimit:10;" d="M412.294,351.26"/>
		<path style="fill:none;stroke:#263238;stroke-linecap:round;stroke-linejoin:round;stroke-miterlimit:10;" d="M389.054,281.882
			c0,0,25.864,9.19,29.801,11.633"/>
		<path style="fill:none;stroke:#263238;stroke-linecap:round;stroke-linejoin:round;stroke-miterlimit:10;" d="M365.826,289.311
			c-2.027-1.491-3.172-5.307-2.711-8.123l0.635-6.596"/>
		<path style="fill:none;stroke:#263238;stroke-linecap:round;stroke-linejoin:round;stroke-miterlimit:10;" d="M386.598,264.366
			c0,0-1.299,4.346-0.232,12.141"/>
		<path style="fill:none;stroke:#263238;stroke-linecap:round;stroke-linejoin:round;stroke-miterlimit:10;" d="M377.992,356.581
			l-45.971-32.323l-10.056,8.979c0,0,40.942,45.611,57.104,52.794c0,0,32.245-34.758,42.66-51.997c0,0,10.525-17.221-2.699-40.524"
			/>
		
			<line style="fill:none;stroke:#263238;stroke-linecap:round;stroke-linejoin:round;stroke-miterlimit:10;" x1="372.468" y1="352.787" x2="397.156" y2="320.048"/>
		
			<line style="fill:none;stroke:#263238;stroke-linecap:round;stroke-linejoin:round;stroke-miterlimit:10;" x1="373.234" y1="353.308" x2="388.677" y2="354.026"/>
		<path style="fill:none;stroke:#263238;stroke-linecap:round;stroke-miterlimit:10;" d="M400.284,226.761
			c0,0,2.004-8.014-3.005-14.192"/>
		<polyline style="fill:none;stroke:#263238;stroke-linecap:round;stroke-linejoin:round;stroke-miterlimit:10;" points="
			312.258,326.142 302.825,339.245 257.958,317.44 253.765,326.665 298.632,364.823 333.236,345.743 		"/>
		
			<line style="fill:none;stroke:#263238;stroke-linecap:round;stroke-linejoin:round;stroke-miterlimit:10;" x1="332.02" y1="298.839" x2="355.837" y2="286.979"/>
		<path style="fill:none;stroke:#263238;stroke-linecap:round;stroke-linejoin:round;stroke-miterlimit:10;" d="M256.722,319.852
			l1.288-12.022l-4.822-8.949c0,0,0.692-6.326-0.693-6.289c-1.385,0.037-1.31,15.421-1.31,15.421s-4.08,2.88-2.574,9.195"/>
		
			<line style="fill:none;stroke:#263238;stroke-linecap:round;stroke-linejoin:round;stroke-miterlimit:10;" x1="240.92" y1="319.231" x2="253.765" y2="326.665"/>
		<polyline style="fill:none;stroke:#263238;stroke-linecap:round;stroke-linejoin:round;stroke-miterlimit:10;" points="
			329.793,312.465 332.216,316.709 331.749,324.262 		"/>
		<path style="fill:none;stroke:#263238;stroke-linecap:round;stroke-linejoin:round;stroke-miterlimit:10;" d="M325.415,321.539
			c0-0.655-13.667-15.396-13.667-15.396l-1.564,1.235l5.608,10.967l-4.702-8.25l-1.317,1.564l1.229,6.031l-1.641-4.385l-2.223,1.153
			l6.054,12.887l8.623,5.564"/>
		<g>
			<path style="fill:none;stroke:#263238;stroke-linecap:round;stroke-linejoin:round;stroke-miterlimit:10;" d="M422.824,397.772"
				/>
			<path style="fill:none;stroke:#263238;stroke-linecap:round;stroke-linejoin:round;stroke-miterlimit:10;" d="M411.799,404.373"
				/>
			<path style="fill:none;stroke:#263238;stroke-linecap:round;stroke-linejoin:round;stroke-miterlimit:10;" d="M400.926,409.51"/>
			<path style="fill:none;stroke:#263238;stroke-linecap:round;stroke-linejoin:round;stroke-miterlimit:10;" d="M346.998,406.952"
				/>
		</g>
		<path style="fill:none;stroke:#263238;stroke-linecap:round;stroke-linejoin:round;stroke-miterlimit:10;" d="M386.473,276.507
			c0,0-10.712,8.471-20.65,12.293c0,0,0.956,11.468,3.44,12.232c0.92,0.283,2.323-0.669,3.071-1.075
			c1.772-0.96,3.457-2.087,5.119-3.221c3.398-2.318,6.701-4.777,9.961-7.283c0.635-0.488,1.593-0.954,1.639-1.808
			c0.217-4.016,0.448-7.982-2.539-11.094L386.473,276.507z"/>
		<path style="fill:none;stroke:#263238;stroke-linecap:round;stroke-linejoin:round;stroke-miterlimit:10;" d="M365.823,288.8
			c0,0-2.732,9.5-5.022,9.172c-2.289-0.327-5.069-11.611-5.069-11.611s2.616-8.994,7.522-7.522"/>
		<path style="fill:none;stroke:#263238;stroke-linecap:round;stroke-linejoin:round;stroke-miterlimit:10;" d="M302.982,338.91
			c0.409,3.397,0.425,6.841,0.047,10.242"/>
		
			<line style="fill:none;stroke:#263238;stroke-linecap:round;stroke-linejoin:round;stroke-miterlimit:10;" x1="336.15" y1="317.331" x2="339.958" y2="329.727"/>
		<path style="fill:none;stroke:#263238;stroke-linecap:round;stroke-linejoin:round;stroke-miterlimit:10;" d="M395.112,309.613
			c-2.918,5.499-4.268,11.819-3.853,18.031"/>
		<path style="fill:none;stroke:#263238;stroke-linecap:round;stroke-linejoin:round;stroke-miterlimit:10;" d="M388.532,316.695
			c-0.379,3.642-0.253,7.337,0.372,10.945"/>
		<path style="fill:none;stroke:#263238;stroke-linecap:round;stroke-linejoin:round;stroke-miterlimit:10;" d="M304.574,340.333
			c1.06,1.954,1.737,4.114,1.982,6.324"/>
		<path style="fill:none;stroke:#FFFFFF;stroke-width:0.5;stroke-linecap:round;stroke-linejoin:round;stroke-miterlimit:10;" d="
			M360.195,216.71c0.315,1.635,1.411,3.043,2.751,4.031c1.34,0.988,2.917,1.601,4.5,2.119c4.665,1.526,9.569,2.317,14.478,2.335
			c1.075,0.004,2.169-0.026,3.202,0.269c1.034,0.295,2.021,0.983,2.371,1.999"/>
		<path style="fill:none;stroke:#FFFFFF;stroke-width:0.5;stroke-linecap:round;stroke-linejoin:round;stroke-miterlimit:10;" d="
			M363.896,212.827c0.649,2.722,3.464,4.457,6.234,4.853c2.77,0.396,5.568-0.237,8.339-0.628c2.771-0.391,5.744-0.505,8.212,0.814
			c2.468,1.319,4.116,4.517,2.865,7.02"/>
		<path style="fill:none;stroke:#263238;stroke-linecap:round;stroke-linejoin:round;stroke-miterlimit:10;" d="M331.676,322.272"/>
	</g>
</g>
<g id="Table">
	<polyline style="fill:none;stroke:#263238;stroke-linecap:round;stroke-linejoin:round;stroke-miterlimit:10;" points="
		336.15,388.83 355.26,388.83 355.64,388.83 417.66,388.83 417.7,388.83 453.21,388.83 	"/>
	
		<line style="fill:none;stroke:#263238;stroke-linecap:round;stroke-linejoin:round;stroke-miterlimit:10;" x1="291.726" y1="388.828" x2="327.074" y2="388.828"/>
	<g id="Device--inject-47">
		<polygon style="fill:none;stroke:#263238;stroke-linecap:round;stroke-linejoin:round;stroke-miterlimit:10;" points="
			369.282,402.754 303.603,402.754 278.532,416.296 347.353,416.296 		"/>
		
			<line style="fill:none;stroke:#263238;stroke-linecap:round;stroke-linejoin:round;stroke-miterlimit:10;" x1="307.898" y1="406.291" x2="356.397" y2="406.291"/>
		
			<line style="fill:none;stroke:#263238;stroke-linecap:round;stroke-linejoin:round;stroke-miterlimit:10;" x1="304.361" y1="408.817" x2="351.507" y2="408.817"/>
		
			<line style="fill:none;stroke:#263238;stroke-linecap:round;stroke-linejoin:round;stroke-miterlimit:10;" x1="300.824" y1="411.344" x2="346.595" y2="411.344"/>
		
			<line style="fill:none;stroke:#263238;stroke-linecap:round;stroke-linejoin:round;stroke-miterlimit:10;" x1="356.65" y1="406.291" x2="342.763" y2="413.112"/>
		
			<line style="fill:none;stroke:#263238;stroke-linecap:round;stroke-linejoin:round;stroke-miterlimit:10;" x1="349.071" y1="406.291" x2="335.184" y2="413.112"/>
		<polygon style="fill:#263238;" points="266.776,369.051 335.605,369.051 347.353,416.296 278.532,416.296 		"/>
		
			<rect x="277.916" y="416.287" style="fill:none;stroke:#263238;stroke-linecap:round;stroke-linejoin:round;stroke-miterlimit:10;" width="69.436" height="3.36"/>
		<polygon style="fill:#FFFFFF;stroke:#263238;stroke-linecap:round;stroke-linejoin:round;stroke-miterlimit:10;" points="
			266.018,369.051 334.847,369.051 346.595,416.296 277.766,416.296 		"/>
		<polygon style="fill:#263238;" points="347.353,416.296 369.764,402.671 369.745,405.225 347.603,420.085 		"/>
		<path style="fill:none;stroke:#263238;stroke-linecap:round;stroke-linejoin:round;stroke-miterlimit:10;" d="M309.296,391.233
			c0.308,2.009-1.071,3.887-3.08,4.195c-2.009,0.308-3.887-1.071-4.195-3.08c-0.286-1.868,0.889-3.65,2.719-4.121
			C306.828,387.802,308.865,389.147,309.296,391.233z"/>
	</g>
</g>
</svg>
