<?xml version="1.0" encoding="utf-8"?>
<!-- Generator: Adobe Illustrator 27.5.0, SVG Export Plug-In . SVG Version: 6.00 Build 0)  -->
<svg version="1.1" xmlns="http://www.w3.org/2000/svg" xmlns:xlink="http://www.w3.org/1999/xlink" x="0px" y="0px"
	 viewBox="0 0 750 500" style="enable-background:new 0 0 750 500;" xml:space="preserve">
<g id="BACKGROUND">
</g>
<g id="OBJECTS">
	<g>
		<path style="fill:#FEFCE4;" d="M672.913,245.04c0-102.572-83.15-185.723-185.722-185.723c-55.643,0-105.56,24.475-139.599,63.239
			c-18.756-15.827-42.986-25.372-69.449-25.372c-57.761,0-104.904,45.445-107.631,102.531
			C118.12,211.661,79.02,258.539,79.02,314.552c0,65.051,52.734,117.785,117.786,117.785h295.158v-1.633
			C592.33,428.172,672.913,346.017,672.913,245.04z"/>
		
			<ellipse transform="matrix(0.7071 -0.7071 0.7071 0.7071 -34.2641 393.8259)" style="fill:#FFFEFF;" cx="458.258" cy="238.273" rx="107.852" ry="107.852"/>
		<path style="fill:none;stroke:#1F98D7;stroke-miterlimit:10;stroke-dasharray:6;" d="M559.338,98.654
			c24,2.667,16-46.667,40.666-52"/>
		<path style="fill:none;stroke:#1F98D7;stroke-miterlimit:10;stroke-dasharray:6;" d="M91.216,53.756
			c-14.969,4.702-31.223,28.094-22.593,47.312c11.726,26.113,38.776,26.113,55.803,43.647c9.448,9.73,15.597,22.378,14.241,35.939"
			/>
		<path style="fill:none;stroke:#1F98D7;stroke-miterlimit:10;stroke-dasharray:6;" d="M63.812,397.328
			c10.473,23.075,39.526,20.397,53.432,3.808c15.671-20.554,13.205-52.295-1.925-72.899"/>
		<path style="fill:none;stroke:#1F98D7;stroke-miterlimit:10;stroke-dasharray:6;" d="M422.481,205.857
			c7.336,7.052,20.431,7.346,27.823,1.42c15.686-12.575,17.602-44.083,38.219-57.341c13.092-8.418,25.435-4.026,38.408,2.204"/>
		<path style="fill:none;stroke:#1F98D7;stroke-miterlimit:10;stroke-dasharray:6;" d="M596.588,392.158
			c-8.616-9.873-3.235-32.289,1.044-42.652c6.087-18.372,22.725-34.726,43.6-37.586c38.782-5.309,66.608,42.227,38.544,70.196
			c-10.758,10.723-49.387,10.87-43.977-22.818"/>
		<path style="fill:#EFE5D0;" d="M466.929,390.853c0-8.132-6.542-14.729-14.649-14.833v-0.009h-0.173
			c-0.007,0-0.013-0.001-0.02-0.001c-0.007,0-0.013,0.001-0.02,0.001H153.05c-0.007,0-0.013-0.001-0.02-0.001
			c-8.197,0-14.842,6.646-14.842,14.843c0,8.196,6.645,14.842,14.842,14.842h299.249v-0.01
			C460.387,405.581,466.929,398.985,466.929,390.853z"/>
		<path style="fill:#1F98D7;" d="M158.978,84.004c0.056-0.409,0.094-0.824,0.094-1.248c0-5.056-4.097-9.154-9.152-9.154
			c-2.035,0-3.909,0.672-5.428,1.795c-2.1-3.56-5.961-5.956-10.393-5.956c-6.664,0-12.067,5.402-12.067,12.067
			c0,0.857,0.093,1.69,0.262,2.496H158.978z"/>
		<path style="fill:#1F98D7;" d="M246.531,121.614c0.33-1.048,0.51-2.163,0.51-3.32c0-6.102-4.947-11.049-11.049-11.049
			c-1.203,0-2.357,0.199-3.442,0.555c0.253-1.04,0.403-2.123,0.403-3.241c0-7.555-6.125-13.679-13.68-13.679
			c-4.602,0-8.664,2.28-11.143,5.765c-2.028-2.009-4.815-3.251-7.896-3.251c-6.199,0-11.224,5.025-11.224,11.224
			c0,1.074,0.159,2.11,0.442,3.094c-0.916-0.23-1.868-0.365-2.854-0.365c-6.466,0-11.708,5.242-11.708,11.708
			c0,0.88,0.105,1.734,0.29,2.56H246.531z"/>
		<g>
			<g>
				<g>
					<g>
						<path style="fill:#00C69C;" d="M152.837,395.602c-4.572-33.208-42.774-170.881-68.095-197.944
							c-13.72-14.657-29.408-13.61-34.11-1.018c-5.438,13.587,1.291,31.941,6.258,44.398
							c11.729,28.165,77.861,125.157,91.959,148.56c1.12,1.594,2.237,3.185,2.934,4.842"/>
					</g>
					<path style="fill:none;stroke:#00A37C;stroke-miterlimit:10;" d="M57.808,188.372c0,0,45.182,64.24,94.608,207.805"/>
				</g>
				<g>
					<g>
						<path style="fill:#00C69C;" d="M151.764,395.247c8.947-19.593,35.613-107.442,31.187-130.842
							c-2.399-12.677-11.273-17.51-18.157-12.293c-7.626,5.5-10.292,17.774-11.889,26.241c-3.329,19.32-0.832,94.714-1.24,112.264
							c0.061,1.254,0.118,2.499-0.077,3.637"/>
					</g>
					<path style="fill:none;stroke:#00A37C;stroke-miterlimit:10;" d="M171.531,250.096c0,0,2.404,50.41-20.192,145.324"/>
				</g>
				<g>
					<g>
						<path style="fill:#00A37C;" d="M151.411,394.998c5.682-39.392,7.284-209.022-12.731-248.213
							c-10.837-21.227-29.082-25.181-38.585-12.355c-10.656,13.717-9.001,36.871-7.427,52.713
							c4.141,35.991,47.764,168.368,56.164,199.7c0.755,2.181,1.51,4.37,1.754,6.484"/>
					</g>
					<path style="fill:none;stroke:#D8CAB2;stroke-miterlimit:10;" d="M111.003,127.354c0,0,30.466,88.133,39.742,268.164"/>
				</g>
			</g>
		</g>
		<g>
			<g>
				<g>
					<g>
						<path style="fill:#00C69C;" d="M580.806,325.782c7.369-32.701,57.095-166.644,84.616-191.466
							c14.911-13.442,30.455-11.07,34.073,1.875c4.268,13.999-3.992,31.717-9.996,43.709
							c-14.071,27.07-88.182,118.113-104.211,140.237c-1.25,1.493-2.498,2.983-3.333,4.576"/>
					</g>
					<path style="fill:none;stroke:#00A37C;stroke-miterlimit:10;" d="M693.045,127.346c0,0-50.46,60.183-111.867,199.046"/>
				</g>
				<g>
					<g>
						<path style="fill:#00A37C;" d="M582.28,325.302c-2.325-39.731,10.443-208.888,33.707-246.243
							c12.596-20.232,31.109-22.627,39.493-9.043c9.456,14.57,5.845,37.501,2.934,53.152
							c-7.174,35.511-61.852,163.718-72.876,194.226c-0.936,2.108-1.874,4.227-2.296,6.313"/>
					</g>
					<path style="fill:none;stroke:#D8CAB2;stroke-miterlimit:10;" d="M645.209,62.042c0,0-37.82,85.236-62.311,263.835"/>
				</g>
			</g>
		</g>
		<g>
			<path style="fill:#633500;" d="M292.866,376.758c0,0,2.615,11.537,1.692,14.356c-0.928,2.812-29.988,4.872-45.219,1.564
				c-7.502-1.371,4.125-12.086,13.799-16.669"/>
			<path style="fill:#D8CAB2;" d="M258.743,378.424c0,0-3.844,2.15-6.586,4.853c-2.743,2.701,44.431,3.092,40.441-9.431
				C288.608,361.324,258.743,378.424,258.743,378.424z"/>
			<path style="fill:#D36E00;" d="M359.826,198.059c-14.692,1.673-77.622,9.238-84.506,9.868c-6.884,0.63-4.783,12.398,0.05,12.398
				c4.833,0,86.641-9.318,87.133-9.492"/>
			<g>
				<path style="fill:#D36E00;" d="M402.347,304.771c-2.158,4.703-7.17,6.36-10.493,1.709c-2.521-3.502-1.82-8.686-0.841-12.747
					c1.261-6.305,5.604-8.686,11.348-10.928"/>
			</g>
			<path style="fill:#633500;" d="M419.113,354.4c0,0,9.195-7.443,12.131-7.861c2.934-0.41,17.621,24.749,21.382,39.875
				c2.087,7.336-12.663,1.639-21.049-5.015"/>
			<g>
				<path style="fill:#FF8C00;" d="M391.478,305.892c29.378-15.977,23.275-91.124-13.916-105.666
					c-53.932-21.087-26.334,59.605-28.576,62.348"/>
			</g>
			<path style="fill:#0A5265;" d="M364.504,313.621c0,0-53.26-20.444-61.849-14.602c-8.591,5.843-7.217,74.564-8.591,79.373
				c-1.374,4.809-47.76,1.719-47.072-6.186c0.687-7.902,14.087-100.85,29.548-111.671c8.151-5.706,46.901-2.895,79.715,3.347
				c29.434,5.599,53.869,14.004,50.9,20.706C400.876,298.762,364.504,313.621,364.504,313.621z"/>
			<path style="fill:none;stroke:#FEFCE4;stroke-width:0.5;stroke-miterlimit:10;" d="M276.79,380.57
				c0,0,6.962-88.852,15.726-93.491c8.764-4.639,37.628,1.29,52.058,9.278"/>
			<g>
				<path style="fill:#0A5265;" d="M309.358,382.213c13.568,21.092,104.789,12.54,117.166,9.003
					c14.43-4.124,3.949-41.857-7.732-39.452c-11.683,2.404-61.334,14.793-64.425,7.912c-2.518-5.601,47.933-47.599,52.789-75.087
					c1.173-6.644-28.89-32.043-50.9-20.706C356.255,263.883,295.791,361.122,309.358,382.213z"/>
			</g>
			<path style="fill:none;stroke:#FEFCE4;stroke-width:0.5;stroke-miterlimit:10;" d="M398.087,275.877
				c-3.775,6.048-68.201,78.979-61.244,90.576c6.959,11.595,94.466-1.559,94.91,0"/>
			<g>
				<rect x="192.734" y="242.404" style="fill:#0A5265;" width="6.724" height="150.262"/>
				<rect x="192.734" y="270.647" style="fill:#0A5265;" width="6.724" height="10.354"/>
				<path style="fill:#FF7769;" d="M161.074,179.979c-18.878,0-34.181,15.304-34.181,34.182c0,0,0,44.092,0,48.191
					c0,4.098,4.062,8.295,8.685,8.295c4.624,0,59.678,0,59.678,0v-56.486C195.255,195.283,179.952,179.979,161.074,179.979z"/>
				<g>
					<path style="fill:#FE4843;" d="M135.577,270.647c4.624,0,59.678,0,59.678,0v-7.006h-68.223
						C127.762,267.284,131.44,270.647,135.577,270.647z"/>
				</g>
				<g>
					<path style="fill:#FFC6B6;" d="M195.255,214.161c0-18.878-15.303-34.182-34.182-34.182c-18.878,0-34.181,15.304-34.181,34.182
						v0.001L195.255,214.161L195.255,214.161z"/>
				</g>
				<rect x="161.074" y="179.979" style="fill:#FFC6B6;" width="63.881" height="34.182"/>
				<path style="fill:#FCA995;" d="M222.993,179.979c-18.878,0-34.182,15.304-34.182,34.182c0,0,0,43.148,0,47.91
					c0,4.765,2.802,8.576,7.705,8.576c3.809,0,38.307,0,53.514,0c4.368,0,7.145-1.57,7.145-7.875c0-6.304,0-48.611,0-48.611
					C257.175,195.283,241.871,179.979,222.993,179.979z"/>
				<path style="fill:#0A5265;" d="M196.517,266.444c-3.161,0-3.502-3.059-3.502-4.374v-47.91c0-16.53,13.449-29.979,29.979-29.979
					c16.53,0,29.979,13.449,29.979,29.979v48.611c0,3.673-0.623,3.673-2.942,3.673H196.517z"/>
				<g>
					<path style="fill:none;" d="M245.135,193.972l-51.908,69.831c0.337,1.292,1.189,2.642,3.29,2.642h53.514
						c2.319,0,2.942,0,2.942-3.673v-48.611C252.972,206.392,250,199.304,245.135,193.972z"/>
					<path style="fill:#0A5265;" d="M222.993,184.182c-16.53,0-29.979,13.449-29.979,29.979v47.91c0,0.442,0.042,1.08,0.212,1.732
						l51.908-69.831C239.648,187.96,231.754,184.182,222.993,184.182z"/>
				</g>
				<g>
					<defs>
						<path id="SVGID_1_" d="M196.517,266.444c-3.161,0-3.502-3.059-3.502-4.374v-47.91c0-16.53,13.449-29.979,29.979-29.979
							c16.53,0,89.663-16.53,89.663,0l-6.667,78.59c0,3.673-53.641,3.673-55.959,3.673H196.517z"/>
					</defs>
					<clipPath id="SVGID_00000025418544855511144980000010151695048597262985_">
						<use xlink:href="#SVGID_1_"  style="overflow:visible;"/>
					</clipPath>
					<g style="clip-path:url(#SVGID_00000025418544855511144980000010151695048597262985_);">
						
							<rect x="175.38" y="188.77" transform="matrix(0.9836 -0.1802 0.1802 0.9836 -36.3718 44.9861)" style="fill:#EFE5D0;" width="108.114" height="67.857"/>
						<polygon style="fill:#FEFCE4;" points="170.151,199.066 229.438,222.699 276.496,179.585 						"/>
						<polygon style="fill:#D8CAB2;" points="276.496,179.585 276.872,181.644 232.29,220.085 						"/>
						<polygon style="fill:#D8CAB2;" points="225.841,221.266 170.151,199.066 170.53,201.124 						"/>
						<polyline style="fill:none;stroke:#FEFCE4;stroke-linecap:round;stroke-miterlimit:10;" points="182.378,265.813 
							229.438,222.699 288.723,246.332 						"/>
					</g>
				</g>
				<g>
					<polygon style="fill:#0A5265;" points="218.867,187.325 288.407,154.641 289.54,157.126 219.282,188.235 					"/>
				</g>
				<g>
					<polygon style="fill:#0A5265;" points="227.56,261.145 265.725,257.039 265.98,260.379 227.636,262.143 					"/>
				</g>
				<g>
					<polygon style="fill:#0A5265;" points="247.049,180.061 283.522,165.455 284.342,167.605 247.405,180.995 					"/>
				</g>
			</g>
			<path style="fill:#D8CAB2;" d="M350.262,273.85c0,0-41.965,12.245-47.607,25.17c0,0,4.72-3.467,31.173,4.222L350.262,273.85z"/>
			<path style="fill:#D8CAB2;" d="M358.231,352.596c-2.611,3.52-16.039,8.939-15.619,11.461c0.42,2.521,7.859-0.906,21.213-2.366
				c0,0-13.176,0.895-8.71-4.756C355.87,355.981,356.652,354.021,358.231,352.596z"/>
			<g>
				<path style="fill:#FF8C00;" d="M348.986,262.573c1.542,1.82,2.942,5.103,3.083,7.482c3.222-4.342,6.583-7.844,12.328-8.124
					c6.584-0.281,13.447,2.661,19.191,5.743c7.231,3.882,13.496,9.764,16.798,17.353c2.649,6.093,2.209,16.177,0.013,22.434
					c2.663,1.54,11.853-30.244,11.208-46.651c-1.747-44.407-24.435-61.111-40.955-62.946c-5.604-0.7,5.792,23.862,1.589,27.225
					c-6.443,4.903-0.735,17.371-6.198,23.395"/>
			</g>
			<g>
				<path style="fill:#FFC48A;" d="M352.661,202.199c-1.013,5.098,15.069,1.335,17.991-4.335l0,0
					c-2.819-1.045-4.894-4.908-3.611-9.982c1.336-4.735,2.3-8.54-0.97-12.718c-2.851-3.723-7.693-5.74-12.096-2.782
					c-3.892,2.878-3.82,7.737-3.655,12.06c0.279,3.958,1.259,11.088,5.685,9.536C356.703,198.389,356.095,198.763,352.661,202.199"
					/>
			</g>
			<g>
				<path style="fill:#1F98D7;" d="M360.474,182.921c0.21-2.521,3.782-2.731,3.992,0.21c0.21,1.681-1.261,2.942-3.152,2.942
					c3.572,3.572,5.136,7.347,11.977,6.725c10.401-0.946,9.141-19.543-0.789-16.023c8.073-7.565-1.851-16.338-9.087-10.034
					c1.156-4.308-5.819-6.539-9.456-4.176c-4.974,3.23-5.005,9.448-2.484,12.811c4.69-5.903,9.628,3.553,8.788,7.126"/>
			</g>
			<path style="fill:#D8CAB2;" d="M375.477,220.325c0,0-30.844,16.943-29.011,26.502c0,0-2.593-14.104-2.383-18.937L375.477,220.325
				z"/>
			<g>
				<path style="fill:none;" d="M400.398,307.461c0.043,0.025,0.089,0.04,0.135,0.048
					C400.454,307.48,400.398,307.461,400.398,307.461z"/>
				<path style="fill:none;" d="M400.398,307.461c1.143-3.268,1.629-6.502,1.742-9.455
					C401.945,301.449,401.333,304.801,400.398,307.461z"/>
				<path style="fill:#D8CAB2;" d="M411.606,260.81c-0.554-14.054-3.208-25.326-7.098-34.238c0.145,0.746,7.306,38.258-4.123,58.456
					c1.523,3.503,2.021,8.324,1.755,12.979c-0.113,2.953-0.6,6.187-1.742,9.455c0,0,0.056,0.02,0.135,0.048
					C403.355,307.978,412.239,276.952,411.606,260.81z"/>
			</g>
			<path style="fill:#FF8C00;" d="M372.114,262.886"/>
			<path style="fill:#D8CAB2;" d="M372.114,262.886c7.697,4.366,15.779,11.071,18.375,19.842
				c6.267,21.171-20.279,55.271-33.076,70.738c0,0,38.398-40.706,45.236-56.583C402.649,296.883,406.87,273.717,372.114,262.886z"/>
			<g>
				<path style="fill:#FFC48A;" d="M265.852,219.064c-1.261-1.261-2.662-2.381-3.782-3.782c-1.821-2.242-4.216-6.794-5.091-6.409
					c-0.876,0.385-0.653,3.187,0.468,4.728c-1.541-0.42-3.66-0.841-5.884-1.681c-2.714-1.026-3.985,1.121-2.347,6.088
					c2.189,6.638,4.991,7.793,7.95,7.305c2.251-0.371,5.184-0.646,7.565-0.085"/>
			</g>
			<g>
				<path style="fill:#FF8C00;" d="M374.342,201.659c-30.453,17.195-73.966,20.347-107.798,13.449
					c-3.326-0.679-6.511,14.061-1.261,15.129c39.39,8.012,85.594,4.718,116.413-13.238"/>
			</g>
			<g>
				<path style="fill:#D8CAB2;" d="M368.241,180.402c-1.17-4.478-5.621-4.22-7.034-0.14c-0.16-11.581-10.439-14.133-11.311-11.218
					c-0.278,2.338,0.339,4.68,1.579,6.332c4.69-5.903,9.628,3.553,8.788,7.126l0.21,0.42c0.21-2.521,3.782-2.731,3.992,0.21
					c0.21,1.681-1.261,2.942-3.152,2.942c3.572,3.572,5.136,7.347,11.977,6.725c3.321-0.302,5.449-2.407,6.489-5.014
					C378.124,191.795,370.653,189.645,368.241,180.402z"/>
			</g>
			<path style="fill:#D8CAB2;" d="M356.003,193.977c0,0,3.332-0.549,3.822-5.067c0,0,0.64,4.449-3.575,7.251L356.003,193.977z"/>
			<path style="fill:none;stroke:#FEFCE4;stroke-width:0.5;stroke-miterlimit:10;" d="M376.967,264.571
				c0,0-11.442,19.529,5.376,30.777"/>
		</g>
		<g>
			<g>
				<path style="fill:#633500;" d="M557.714,416.971c-1.619,7.559-9.178,20.509-1.067,24.835c6.571,3.498,35.201,6.878,38.023,3.694
					c5.319-6-4.102-12.822-7.701-21.219"/>
			</g>
			<path style="fill:#633500;" d="M526.282,395.882c0,0,5.712,8.632,5.555,16.688c-0.065,3.351-15.683,24.753-29.752,28.851
				c-8.286,2.413-16.346-8.778,1.006-24.467"/>
			<g>
				<g>
					<path style="fill:#FCA995;" d="M496.143,164.442c-1.692-2.28,0.023-3.612,0.863-5.417
						c14.733-31.663,2.539-66.428,36.502-77.466l17.474-0.127c11.715,3.697,22.815,14.009,26.523,25.936
						c4.023,14.261,5.789,35.766,7.771,49.208c0.391,2.651,3.319,2.604,1.216,6.894c-2.958,6.031-4.973,10.855-6.759,12.458
						c-7.798,6.998-17.285,5.028-26.757,6.243c-3.643,0.485-7.043,0.728-10.685,0.971"/>
				</g>
				<path style="fill:#1DC9D6;" d="M586.49,162.985c0.202,0.809,0.971,11.9,0.971,11.9s14.4,121.776,14.916,128.578
					c0.375,4.939-1.02,111.597-0.828,121.233c0.191,9.637-51.509,16.242-52.775,0.486c-1.267-15.756,3.743-101.805,3.743-109.577
					c0-7.771-4.328-77.305-8.699-76.818c-4.372,0.486-23.186,49.705-23.186,57.477c0,7.771,13.918,88.352,14.514,96.377
					c1.798,13.693-51.934,50.359-54.059,23.857c-1.623-16.203-11.143-110.034-9.688-130.435
					c1.21-16.916,23.045-109.963,23.045-109.963s2.299-7.069,1.699-12.143c0,0,13.602,7.043,44.202,7.043
					C570.947,170.999,586.49,162.985,586.49,162.985z"/>
				<path style="fill:#FFC6B6;" d="M535.458,71.563c1.944,2.539,0.885,7.681-0.156,9.938c-1.042,2.256,14.37,2.154,13.781-0.067
					c-0.587-2.223-1.849-6.159,0-9.871"/>
				<path style="fill:#FFC6B6;" d="M533.508,81.56c0,0,3.319,7.899,9.071,7.899c5.749,0,8.402-8.026,8.402-8.026
					S543.576,80.323,533.508,81.56z"/>
				<path style="fill:#D8CAB2;" d="M536.618,73.722c0,0,1.377,4.369,5.706,4.369c4.327,0,5.531-4.148,5.531-4.148L536.618,73.722z"
					/>
				<path style="fill:#FFC6B6;" d="M552.698,64.667c0,1.518-1.077,3.434-2.411,3.434c-1.332,0-2.412-1.229-2.412-2.745
					c0-1.516,1.08-2.746,2.412-2.746C551.621,62.61,552.698,63.152,552.698,64.667z"/>
				<path style="fill:#FCA995;" d="M551.681,64.667c0,0.878-0.624,2.275-1.394,2.275c-0.767,0-1.393-0.71-1.393-1.586
					c0-0.876,0.626-1.587,1.393-1.587C551.057,63.77,551.681,63.792,551.681,64.667z"/>
				<path style="fill:#FFC6B6;" d="M531.788,64.667c0,1.518,1.077,3.434,2.412,3.434c1.329,0,2.411-1.229,2.411-2.745
					c0-1.516-1.082-2.746-2.411-2.746C532.865,62.61,531.788,63.152,531.788,64.667z"/>
				<path style="fill:#FCA995;" d="M532.807,64.667c0,0.878,0.622,2.275,1.394,2.275c0.769,0,1.392-0.71,1.392-1.586
					c0-0.876-0.623-1.587-1.392-1.587C533.429,63.77,532.807,63.792,532.807,64.667z"/>
				<path style="fill:#FFC6B6;" d="M550.285,60.376c0,4.442-3.599,8.043-8.041,8.043c-4.443,0-8.044-3.601-8.044-8.043
					c0-4.443,3.601-8.043,8.044-8.043C546.687,52.333,550.285,55.933,550.285,60.376z"/>
				<path style="fill:#FFC6B6;" d="M550.285,60.376c0,4.882,0.604,8.007,0.178,9.204c-0.427,1.198-2.661,7.466-7.886,7.466
					c-5.225,0-7.451-5.957-7.977-6.714c-0.525-0.757-0.4-5.074-0.4-9.955"/>
				<path style="fill:#FEFCE4;" d="M538.941,70.71c0.152-0.165,1.774-0.069,3.394-0.02c1.56,0.047,3.116,0.041,3.364,0.217
					c0.507,0.36-1.593,2.194-3.379,2.194C540.533,73.101,538.459,71.234,538.941,70.71z"/>
				<path style="fill:none;stroke:#FEFCE4;stroke-miterlimit:10;" d="M496.143,173.915c0,0,37.684,16.839,91.217,0"/>
				<path style="fill:#633500;" d="M496.143,171.789c0,0,37.684,16.839,91.217,0c0,0,1.602-4.446-0.667-6.503
					c0,0-19.269,6.994-45.307,7.537c-26.179,0.545-41.178-5.226-45.154-6.924C496.231,165.898,493.664,168.693,496.143,171.789z"/>
				<path style="fill:none;stroke:#FEFCE4;stroke-miterlimit:10;" d="M551.773,180.923c0,0,0.074,24.676-0.09,33.93
					c-0.166,9.254-5.772,13.465-8.961,13.142c0,0-31.997,54.184-31.997,68.755c0,14.573,17.063,107.944,17.063,107.944"/>
				<polyline style="fill:none;stroke:#FEFCE4;stroke-miterlimit:10;" points="543.817,239.273 542.722,227.995 541.752,216.809 
									"/>
				<g>
					<path style="fill:#FFC6B6;" d="M586.005,181.201c-6.922,9.958-4.251,8.501-5.83,12.994c-1.092,3.157-3.157,7.164-0.607,10.2
						c2.065,2.551,9.829,5.516,9.829,5.516c0.32-4.794,0.494-11.83,3.893-15.898"/>
				</g>
				<g>
					<path style="fill:#FCA995;" d="M550.981,81.433c61.252,6.264,74.116,66.694,44.164,116.8c-5.676,9.495-15-6.335-12.572-12.984
						c14.677-40.171,8.287-68.941-17.456-77.152"/>
				</g>
				<path style="fill:none;stroke:#FEFCE4;stroke-miterlimit:10;" d="M572.387,177.879c0.292,0.708-0.307,32.76,20.375,32.261"/>
				<path style="fill:none;stroke:#FEFCE4;stroke-miterlimit:10;" d="M507.898,177.656c0,0,6.554,34.462-20.192,32.49"/>
				<polygon style="fill:#FF7769;" points="579.694,116.824 573.799,112.085 585.819,160.015 				"/>
				<polyline style="fill:none;stroke:#D36E00;stroke-miterlimit:10;" points="542.579,89.459 542.324,105.426 545.188,107.247 				
					"/>
				<path style="fill:#D36E00;" d="M545.932,93.545c0,0.436-0.353,0.79-0.79,0.79s-0.789-0.354-0.789-0.79
					c0-0.436,0.353-0.789,0.789-0.789S545.932,93.109,545.932,93.545z"/>
				<path style="fill:#D36E00;" d="M545.932,97.978c0,0.436-0.353,0.789-0.79,0.789s-0.789-0.353-0.789-0.789
					c0-0.436,0.353-0.789,0.789-0.789S545.932,97.542,545.932,97.978z"/>
				<path style="fill:#D36E00;" d="M545.932,102.411c0,0.436-0.353,0.789-0.79,0.789s-0.789-0.354-0.789-0.789
					c0-0.436,0.353-0.79,0.789-0.79S545.932,101.975,545.932,102.411z"/>
				<line style="fill:none;stroke:#FEFCE4;stroke-miterlimit:10;" x1="576.544" y1="167.034" x2="576.87" y2="176.847"/>
				<line style="fill:none;stroke:#FEFCE4;stroke-miterlimit:10;" x1="511.038" y1="168.903" x2="510.67" y2="178.306"/>
				<g>
					<path style="fill:#FEFCE4;" d="M551.718,172.634c0.535,0,0.983,0.436,0.999,0.97l0.129,4.393
						c0.009,0.265-0.089,0.518-0.273,0.713c-0.185,0.195-0.432,0.308-0.696,0.315l-8.745,0.259c-0.536,0-0.984-0.436-1.001-0.971
						l-0.129-4.392c-0.009-0.265,0.089-0.518,0.272-0.713c0.185-0.195,0.432-0.308,0.696-0.315l8.718-0.259L551.718,172.634
						 M551.718,171.634c-0.02,0-0.04,0-0.06,0.001l-8.717,0.259c-1.1,0.033-1.973,0.959-1.939,2.059l0.13,4.391
						c0.032,1.08,0.926,1.941,2,1.941c0.02,0,0.039,0,0.059-0.001l8.716-0.259c1.1-0.033,1.973-0.959,1.939-2.059l-0.129-4.392
						C553.685,172.495,552.791,171.634,551.718,171.634L551.718,171.634z"/>
				</g>
				
					<line style="fill:none;stroke:#FEFCE4;stroke-linecap:round;stroke-miterlimit:10;" x1="547.424" y1="175.958" x2="553.055" y2="175.615"/>
				<g>
					<path style="fill:none;" d="M608.945,158.128c-3.772,0-6.829-6.901-6.829-15.414c0-8.099,2.769-14.726,6.286-15.352
						c-6.129-24.113-24.991-42.614-57.421-45.93l14.136,26.664c25.743,8.21,32.133,36.981,17.456,77.152
						c-2.428,6.649,6.897,22.48,12.572,12.984c7.822-13.086,12.718-26.875,14.601-40.22
						C609.482,158.083,609.216,158.128,608.945,158.128z"/>
					<path style="fill:#FF7769;" d="M602.116,142.714c0,8.513,3.057,15.414,6.829,15.414c0.271,0,0.537-0.045,0.801-0.115
						c1.509-10.701,1.08-21.114-1.344-30.651C604.886,127.988,602.116,134.615,602.116,142.714z"/>
				</g>
				<g>
					<path style="fill:#D36E00;" d="M550.55,65.953c-0.041-1.419,0.19-3.036,0.44-4.37c0.717-3.486,0.848-7.662-1.69-10.484
						c-1.817-2.022-6.199-2.726-8.06-0.183c-1.094-1.136-2.683-1.381-4.25-0.833c-5.844,2.042-2.938,11.292-2.802,14.921
						c-0.039,0.924,0.537,1.131,0.54,0.642c0.012-2.021-0.235-4.24,1.387-6.021c1.421-1.561,5.542-2.542,6.042-4.958
						c0.666,1.333,1.333,2.333,2.583,3.167c1.75,1.167,4.25,2,5.083,4.083c0.417,1.167,0.151,2.766,0.197,3.685
						C550.055,66.299,550.562,66.357,550.55,65.953z"/>
				</g>
				<g>
					<path style="fill:#D36E00;" d="M550.046,64.377c0.037,2.811-1.4,4.042-1.4,4.717c0,0.438,1.869,0.303,1.97-0.383
						c-0.094-1.156-0.067-2.199-0.067-3.355"/>
				</g>
				<g>
					<path style="fill:#D36E00;" d="M534.724,63.887c-0.037,2.811,1.434,4.23,1.434,4.904c0,0.438-1.869,0.303-1.97-0.383
						c0.094-1.156,0-2.522,0-3.678"/>
				</g>
				<g>
					<path style="fill:#0C7AAA;" d="M530.114,63.965c-0.213,0.089-0.461-0.011-0.549-0.224l-3.399-8.071
						c-0.091-0.212,0.011-0.46,0.224-0.549l0.876-0.37c0.212-0.089,0.46,0.012,0.55,0.224l3.398,8.071
						c0.09,0.212-0.011,0.46-0.224,0.549L530.114,63.965z"/>
					<path style="fill:#0C7AAA;" d="M527.879,64.779c-2.363,0.995-5.091-0.129-6.095-2.512c-1.004-2.382,0.099-5.12,2.461-6.115
						c2.362-0.994,2.823,1.085,3.826,3.467C529.075,62.001,530.24,63.784,527.879,64.779z"/>
					
						<rect x="525.943" y="55.194" transform="matrix(0.9216 -0.3881 0.3881 0.9216 18.1089 209.4084)" style="fill:#0C7AAA;" width="3.047" height="9.361"/>
					<path style="fill:#0C7AAA;" d="M540.156,87.809c-0.212,0.09-0.459-0.011-0.548-0.224l-3.399-8.071
						c-0.09-0.212,0.01-0.46,0.224-0.549l0.876-0.369c0.212-0.09,0.46,0.011,0.548,0.224l3.4,8.072
						c0.09,0.212-0.012,0.46-0.225,0.548L540.156,87.809z"/>
					<path style="fill:#0C7AAA;" d="M537.921,88.623c-2.362,0.995-5.092-0.129-6.094-2.512c-1.005-2.382,0.098-5.12,2.46-6.115
						c2.362-0.995,2.824,1.086,3.827,3.467C539.118,85.845,540.284,87.628,537.921,88.623z"/>
					
						<rect x="535.447" y="79.146" transform="matrix(0.9216 -0.3882 0.3882 0.9216 9.5926 215.1354)" style="fill:#0C7AAA;" width="3.607" height="9.361"/>
					<path style="fill:#0C7AAA;" d="M527.672,64.866c-3.452,1.455,3.062,16.632,6.412,15.222c3.35-1.412,3.65,8.669,3.65,8.669
						s-7.678,3.091-14.384-12.83c-6.706-15.921-0.962-18.984,0.638-19.658"/>
				</g>
				<g>
					<path style="fill:#FFC6B6;" d="M515.114,67.875c2.125,0.5,3.125,0.625,5.375,0.125c4.125-0.875,6.875-2,9.5,1.875
						c0.75,1.375,2.25,5.125,1.25,6.75c-0.75,1-1,0.375-2.25,0.125c-1.25-0.375-2.625-0.125-3.875,0.125
						c-0.875,0.125-1.625,0.25-2.5,0.25c-1.75,0-3.125,0.5-4.875,1.125"/>
				</g>
				<g>
					<path style="fill:#FCA995;" d="M530.051,102.688c-7.699,2.998-56.811,33.361-68.561,20.062
						c-11.012-12.464,12.348-31.129,49.901-55.002c6.54-4.157,12.344,9.64,9.385,11.513c-13.602,8.61-46.536,28.989-45.769,31.391
						c1.111,3.477,25.982-20.651,52.755-26.825"/>
				</g>
			</g>
			<g>
				<path style="fill:none;" d="M469.195,114.906c3.438,3.453,4.013,8.456,1.292,11.192c10.001,0.163,24.789-6.001,37.252-12.076
					c2.63-12.952,6.997-23.855,20.025-30.17l-0.003-0.027c-26.772,6.174-51.644,30.302-52.755,26.825
					c-0.768-2.401,32.167-22.781,45.769-31.391c0.545-0.345,0.79-1.096,0.791-2.063c-1.286,0.152-2.442,0.557-3.827,1.052
					l-2.625-10.375c0.789,0.186,1.423,0.319,2.023,0.389c-1.671-1.343-3.672-1.835-5.747-0.516
					c-28.484,18.107-48.785,33.215-52.133,44.897C462.101,111.081,466.229,111.927,469.195,114.906z"/>
				<path style="fill:#FF7769;" d="M469.195,114.906c-2.966-2.979-7.095-3.825-9.938-2.261c-1.065,3.719-0.428,7.094,2.231,10.104
					c2.024,2.291,5.158,3.286,8.998,3.349C473.208,123.362,472.634,118.359,469.195,114.906z"/>
				<g>
					<path style="fill:#FCA995;" d="M507.739,114.022c10.526-5.131,19.394-10.198,22.311-11.334l-2.286-18.836
						C514.736,90.167,510.369,101.071,507.739,114.022z"/>
				</g>
				<g>
					<path style="fill:#FFC6B6;" d="M517.739,78.25c1.385-0.495,2.541-0.899,3.827-1.052c0.003-2.617-1.805-6.826-4.429-8.934
						c-0.601-0.07-1.234-0.203-2.023-0.389L517.739,78.25z"/>
				</g>
			</g>
			<path style="fill:#FF7769;" d="M507.739,114.022l2.931-10.762c0,0-6.843,9.685-36.012,22.587
				C474.658,125.848,485.428,125.356,507.739,114.022z"/>
		</g>
		<g>
			<polygon style="fill:#EFE5D0;" points="416.165,153.756 311.548,116.722 334.792,51.065 439.404,88.089 			"/>
			<polygon style="fill:#FEFCE4;" points="334.792,51.065 375.477,102.41 439.404,88.089 			"/>
			<polygon style="fill:#D8CAB2;" points="439.404,88.089 438.686,90.117 379.352,101.539 			"/>
			<polygon style="fill:#D8CAB2;" points="373.011,99.296 334.792,51.065 334.073,53.088 			"/>
			<polyline style="fill:none;stroke:#FEFCE4;stroke-linecap:round;stroke-miterlimit:10;" points="311.548,116.722 375.477,102.41 
				416.165,153.756 			"/>
		</g>
	</g>
</g>
<g id="DESIGNED_BY_FREEPIK">
	<g>
		<g id="XMLID_57_">
			<g id="XMLID_76_">
				<path id="XMLID_84_" style="fill:#1C1C1B;" d="M385.103,465.465c-0.432,0.443-0.803,0.932-1.107,1.453l-0.465-0.24
					c-0.068-0.297-0.35-0.502-0.66-0.467c-0.33,0.039-0.566,0.34-0.529,0.67c0.039,0.332,0.34,0.568,0.67,0.529
					c0.066-0.008,0.127-0.025,0.184-0.053l0.451,0.234c-0.25,0.555-0.432,1.139-0.539,1.744l0.748,0.131
					c0.229-1.305,0.85-2.506,1.791-3.473L385.103,465.465z"/>
				<path id="XMLID_83_" style="fill:#1C1C1B;" d="M390.592,463.164c-0.172,0-0.342,0.006-0.51,0.016l-0.074-0.625
					c0.188-0.15,0.297-0.389,0.266-0.645c-0.045-0.393-0.402-0.674-0.795-0.629c-0.393,0.047-0.674,0.402-0.627,0.797
					c0.029,0.254,0.189,0.461,0.404,0.563l0.072,0.625c-0.713,0.115-1.402,0.332-2.059,0.645l0.326,0.686
					c0.936-0.447,1.941-0.674,2.996-0.674c0.496,0,0.992,0.053,1.475,0.158l0.16-0.742
					C391.691,463.223,391.143,463.164,390.592,463.164z"/>
				<path id="XMLID_82_" style="fill:#1C1C1B;" d="M397.193,465.711c0.332-0.041,0.566-0.342,0.525-0.672
					c-0.039-0.332-0.34-0.566-0.672-0.525c-0.309,0.037-0.535,0.303-0.529,0.607l-0.416,0.363c-0.418-0.43-0.891-0.813-1.408-1.139
					l-0.404,0.641c1.135,0.715,2.021,1.727,2.564,2.926l0.69-0.313c-0.25-0.555-0.566-1.072-0.941-1.545l0.402-0.352
					C397.065,465.715,397.129,465.719,397.193,465.711z"/>
				<path id="XMLID_81_" style="fill:#1C1C1B;" d="M390.045,473.371c-0.387,0.023-0.775,0.035-1.158,0.035
					c-0.879,0-1.732-0.061-2.478-0.18c-0.391-0.061-0.846-0.154-1.27-0.291c1.047,1.861,3.068,3.125,5.389,3.125
					c2.855,0,5.262-1.916,5.949-4.504c-0.682,0.449-1.506,0.826-2.459,1.123C392.838,473.047,391.463,473.287,390.045,473.371z"/>
				<path id="XMLID_77_" style="fill:#1C1C1B;" d="M390.592,464.68c-3.352,0-6.08,2.666-6.08,5.943c0,0.426,0.047,0.85,0.137,1.262
					c0.674,0.482,2.707,0.891,5.348,0.73c2.881-0.174,5.297-0.957,6.672-2.158c-0.004-0.195-0.02-0.391-0.045-0.582
					C396.244,466.914,393.65,464.68,390.592,464.68z M388.432,471.195c-1.02,0-1.85-0.83-1.85-1.85c0-1.022,0.83-1.852,1.85-1.852
					c1.02,0,1.85,0.83,1.85,1.852C390.281,470.365,389.451,471.195,388.432,471.195z M393.17,470.287
					c-0.75,0-1.361-0.611-1.361-1.361s0.611-1.359,1.361-1.359s1.359,0.609,1.359,1.359S393.92,470.287,393.17,470.287z"/>
			</g>
			<path id="XMLID_74_" style="fill:#1C1C1B;" d="M406.596,466.547c-0.295-0.115-0.807-0.309-1.383-0.238
				c-0.551,0.07-0.844,0.342-0.844,1.008v0.865h2.229v1.717h-2.229v5.455h-1.932v-5.455h-1.34v-1.717h1.34v-0.889
				c0-1.68,0.895-2.781,2.568-2.781c0.643,0,1.156,0.121,1.59,0.307V466.547z"/>
			<path id="XMLID_72_" style="fill:#1C1C1B;" d="M411.297,469.879c-0.176-0.029-0.357-0.047-0.525-0.047
				c-0.895,0-1.51,0.549-1.51,1.613v3.908h-1.932v-7.172h1.873v0.785c0.451-0.674,1.139-0.977,2.02-0.977
				c0.414,0,0.848,0.127,1.096,0.336L411.297,469.879z"/>
			<path id="XMLID_69_" style="fill:#1C1C1B;" d="M418.965,471.758c0,0.221-0.016,0.488-0.037,0.65h-5.084
				c0.207,1.037,0.932,1.488,1.842,1.488c0.623,0,1.295-0.252,1.815-0.69l1.133,1.244c-0.814,0.748-1.852,1.088-3.057,1.088
				c-2.199,0-3.725-1.496-3.725-3.752c0-2.258,1.48-3.797,3.627-3.797C417.543,467.99,418.957,469.522,418.965,471.758z
				 M413.852,471.092h3.174c-0.178-0.918-0.732-1.438-1.561-1.438C414.555,469.654,414.022,470.203,413.852,471.092z"/>
			<path id="XMLID_66_" style="fill:#1C1C1B;" d="M426.619,471.758c0,0.221-0.016,0.488-0.037,0.65h-5.086
				c0.207,1.037,0.934,1.488,1.844,1.488c0.621,0,1.295-0.252,1.813-0.69l1.133,1.244c-0.814,0.748-1.85,1.088-3.057,1.088
				c-2.199,0-3.723-1.496-3.723-3.752c0-2.258,1.48-3.797,3.627-3.797C425.197,467.99,426.611,469.522,426.619,471.758z
				 M421.504,471.092h3.176c-0.178-0.918-0.734-1.438-1.563-1.438C422.207,469.654,421.674,470.203,421.504,471.092z"/>
			<path id="XMLID_63_" style="fill:#1C1C1B;" d="M434.965,471.764c0,2.154-1.496,3.775-3.473,3.775
				c-0.961,0-1.643-0.377-2.109-0.932v3.707h-1.924v-10.133h1.887v0.793c0.467-0.586,1.154-0.984,2.139-0.984
				C433.469,467.99,434.965,469.611,434.965,471.764z M429.287,471.764c0,1.133,0.748,1.977,1.844,1.977
				c1.139,0,1.85-0.881,1.85-1.977c0-1.094-0.711-1.975-1.85-1.975C430.035,469.789,429.287,470.633,429.287,471.764z"/>
			<path id="XMLID_60_" style="fill:#1C1C1B;" d="M438.068,465.836c0,0.695-0.541,1.229-1.236,1.229
				c-0.697,0-1.229-0.533-1.229-1.229c0-0.695,0.531-1.244,1.229-1.244C437.527,464.592,438.068,465.141,438.068,465.836z
				 M437.809,475.353h-1.932v-7.172h1.932V475.353z"/>
			<path id="XMLID_58_" style="fill:#1C1C1B;" d="M441.031,470.736l2.703-2.555h2.367l-3.479,3.375l3.502,3.797h-2.377l-2.717-2.9
				v2.9H439.1v-10.658h1.932V470.736z"/>
		</g>
		<g>
			<path style="fill:#1C1C1B;" d="M309.412,475.289v-1.055c-0.527,0.719-1.391,1.23-2.387,1.23c-1.846,0-3.149-1.406-3.149-3.705
				c0-2.256,1.289-3.721,3.149-3.721c0.952,0,1.816,0.469,2.387,1.244v-3.764h1.099v9.77H309.412z M309.412,473.371v-3.209
				c-0.395-0.615-1.245-1.143-2.124-1.143c-1.42,0-2.27,1.172-2.27,2.74c0,1.566,0.85,2.725,2.27,2.725
				C308.167,474.484,309.017,473.986,309.412,473.371z"/>
			<path style="fill:#1C1C1B;" d="M311.932,471.744c0-2.051,1.465-3.705,3.486-3.705c2.139,0,3.398,1.67,3.398,3.793v0.279h-5.727
				c0.088,1.332,1.025,2.445,2.549,2.445c0.806,0,1.626-0.322,2.182-0.893l0.527,0.717c-0.703,0.703-1.655,1.084-2.812,1.084
				C313.44,475.465,311.932,473.957,311.932,471.744z M315.403,468.947c-1.509,0-2.256,1.273-2.314,2.357h4.644
				C317.718,470.25,317.015,468.947,315.403,468.947z"/>
			<path style="fill:#1C1C1B;" d="M319.607,474.352l0.571-0.791c0.469,0.543,1.362,1.012,2.329,1.012c1.085,0,1.67-0.514,1.67-1.217
				c0-1.713-4.38-0.658-4.38-3.281c0-1.098,0.952-2.035,2.636-2.035c1.202,0,2.051,0.453,2.623,1.025l-0.513,0.762
				c-0.424-0.514-1.201-0.895-2.109-0.895c-0.966,0-1.567,0.484-1.567,1.113c0,1.553,4.379,0.527,4.379,3.281
				c0,1.188-0.952,2.139-2.783,2.139C321.306,475.465,320.325,475.113,319.607,474.352z"/>
			<path style="fill:#1C1C1B;" d="M326.477,466.471c0-0.41,0.337-0.746,0.732-0.746c0.41,0,0.747,0.336,0.747,0.746
				c0,0.41-0.337,0.732-0.747,0.732C326.814,467.203,326.477,466.881,326.477,466.471z M326.667,475.289v-7.074h1.099v7.074H326.667
				z"/>
			<path style="fill:#1C1C1B;" d="M329.582,477.105l0.556-0.82c0.586,0.703,1.289,0.967,2.3,0.967c1.172,0,2.27-0.57,2.27-2.123
				v-1.012c-0.513,0.719-1.377,1.26-2.373,1.26c-1.846,0-3.149-1.377-3.149-3.662c0-2.27,1.289-3.676,3.149-3.676
				c0.952,0,1.802,0.469,2.373,1.244v-1.068h1.099v6.869c0,2.344-1.641,3.076-3.369,3.076
				C331.237,478.16,330.416,477.926,329.582,477.105z M334.708,473.254v-3.092c-0.381-0.615-1.23-1.143-2.109-1.143
				c-1.421,0-2.27,1.129-2.27,2.695c0,1.553,0.849,2.695,2.27,2.695C333.478,474.41,334.328,473.869,334.708,473.254z"/>
			<path style="fill:#1C1C1B;" d="M342.413,475.289v-4.629c0-1.244-0.63-1.641-1.582-1.641c-0.864,0-1.685,0.527-2.094,1.1v5.17
				h-1.099v-7.074h1.099v1.025c0.498-0.586,1.464-1.201,2.519-1.201c1.479,0,2.256,0.746,2.256,2.285v4.965H342.413z"/>
			<path style="fill:#1C1C1B;" d="M344.932,471.744c0-2.051,1.465-3.705,3.486-3.705c2.139,0,3.398,1.67,3.398,3.793v0.279h-5.727
				c0.088,1.332,1.025,2.445,2.548,2.445c0.806,0,1.626-0.322,2.183-0.893l0.527,0.717c-0.703,0.703-1.655,1.084-2.813,1.084
				C346.441,475.465,344.932,473.957,344.932,471.744z M348.404,468.947c-1.509,0-2.256,1.273-2.314,2.357h4.643
				C350.718,470.25,350.015,468.947,348.404,468.947z"/>
			<path style="fill:#1C1C1B;" d="M358.35,475.289v-1.055c-0.527,0.719-1.392,1.23-2.388,1.23c-1.845,0-3.149-1.406-3.149-3.705
				c0-2.256,1.289-3.721,3.149-3.721c0.952,0,1.817,0.469,2.388,1.244v-3.764h1.098v9.77H358.35z M358.35,473.371v-3.209
				c-0.396-0.615-1.245-1.143-2.124-1.143c-1.421,0-2.271,1.172-2.271,2.74c0,1.566,0.85,2.725,2.271,2.725
				C357.105,474.484,357.954,473.986,358.35,473.371z"/>
			<path style="fill:#1C1C1B;" d="M364.692,475.289v-9.77h1.099v3.764c0.571-0.775,1.421-1.244,2.388-1.244
				c1.845,0,3.149,1.465,3.149,3.721c0,2.299-1.304,3.705-3.149,3.705c-0.996,0-1.86-0.512-2.388-1.23v1.055H364.692z
				 M367.9,474.484c1.436,0,2.285-1.158,2.285-2.725c0-1.568-0.85-2.74-2.285-2.74c-0.864,0-1.728,0.527-2.109,1.143v3.209
				C366.171,473.986,367.036,474.484,367.9,474.484z"/>
			<path style="fill:#1C1C1B;" d="M372.528,477.063c0.161,0.072,0.425,0.117,0.601,0.117c0.483,0,0.806-0.162,1.055-0.748
				l0.469-1.068l-2.959-7.148h1.186l2.358,5.801l2.344-5.801h1.201l-3.545,8.51c-0.425,1.025-1.143,1.422-2.08,1.436
				c-0.234,0-0.601-0.043-0.806-0.104L372.528,477.063z"/>
		</g>
	</g>
</g>
</svg>
